League Gothic Italic-Italic.ufo
<glyph name="quotedbl" format="1">
  <advance width="271"/>
  <unicode hex="0022"/>
  <outline>
    <contour>
      <point x="163" y="465" type="line"/>
      <point x="205" y="734" type="line"/>
      <point x="310" y="734" type="line"/>
      <point x="238" y="465" type="line"/>
    </contour>
    <contour>
      <point x="163" y="465" type="line"/>
      <point x="205" y="734" type="line"/>
      <point x="310" y="734" type="line"/>
      <point x="238" y="465" type="line"/>
    </contour>
    <contour>
      <point x="295" y="465" type="line"/>
      <point x="337" y="734" type="line"/>
      <point x="442" y="734" type="line"/>
      <point x="370" y="465" type="line"/>
    </contour>
    <contour>
      <point x="295" y="465" type="line"/>
      <point x="337" y="734" type="line"/>
      <point x="442" y="734" type="line"/>
      <point x="370" y="465" type="line"/>
    </contour>
  </outline>
</glyph>
<glyph name="ampersand" format="1">
  <advance width="417"/>
  <unicode hex="0026"/>
  <outline>
    <contour>
      <point x="464" y="319" type="line"/>
      <point x="461" y="306"/>
      <point x="451" y="277"/>
      <point x="438" y="245" type="curve"/>
      <point x="423" y="213"/>
      <point x="405" y="176"/>
      <point x="382" y="144" type="curve"/>
      <point x="391" y="132"/>
      <point x="398" y="123"/>
      <point x="405" y="118" type="curve"/>
      <point x="411" y="111"/>
      <point x="416" y="108"/>
      <point x="419" y="107" type="curve"/>
      <point x="395" y="-8" type="line"/>
      <point x="392" y="-8"/>
      <point x="387" y="-7"/>
      <point x="382" y="-4" type="curve"/>
      <point x="357" y="7"/>
      <point x="324" y="36"/>
      <point x="307" y="60" type="curve"/>
      <point x="263" y="19"/>
      <point x="215" y="-8"/>
      <point x="170" y="-8" type="curve" smooth="yes"/>
      <point x="127" y="-8"/>
      <point x="94" y="10"/>
      <point x="74" y="41" type="curve" smooth="yes"/>
      <point x="55" y="72"/>
      <point x="47" y="110"/>
      <point x="56" y="154" type="curve" smooth="yes"/>
      <point x="75" y="238"/>
      <point x="129" y="303"/>
      <point x="185" y="367" type="curve"/>
      <point x="165" y="439"/>
      <point x="162" y="506"/>
      <point x="178" y="583" type="curve"/>
      <point x="193" y="643"/>
      <point x="218" y="685"/>
      <point x="261" y="718" type="curve" smooth="yes"/>
      <point x="282" y="735"/>
      <point x="310" y="743"/>
      <point x="344" y="743" type="curve" smooth="yes"/>
      <point x="377" y="743"/>
      <point x="401" y="733"/>
      <point x="417" y="718" type="curve" smooth="yes"/>
      <point x="432" y="703"/>
      <point x="439" y="683"/>
      <point x="442" y="663" type="curve" smooth="yes"/>
      <point x="449" y="616"/>
      <point x="443" y="554"/>
      <point x="390" y="482" type="curve" smooth="yes"/>
      <point x="363" y="446"/>
      <point x="331" y="409"/>
      <point x="294" y="371" type="curve"/>
      <point x="311" y="298"/>
      <point x="324" y="260"/>
      <point x="337" y="232" type="curve"/>
      <point x="358" y="269"/>
      <point x="375" y="318"/>
      <point x="382" y="335" type="curve"/>
    </contour>
    <contour>
      <point x="356" y="613"/>
      <point x="355" y="633"/>
      <point x="348" y="646" type="curve" smooth="yes"/>
      <point x="344" y="653"/>
      <point x="337" y="657"/>
      <point x="326" y="657" type="curve" smooth="yes"/>
      <point x="305" y="657"/>
      <point x="291" y="639"/>
      <point x="283" y="620" type="curve"/>
      <point x="272" y="597"/>
      <point x="266" y="561"/>
      <point x="267" y="524" type="curve" smooth="yes"/>
      <point x="267" y="505"/>
      <point x="270" y="486"/>
      <point x="274" y="463" type="curve"/>
      <point x="306" y="500"/>
      <point x="341" y="547"/>
      <point x="349" y="586" type="curve"/>
    </contour>
    <contour>
      <point x="246" y="171"/>
      <point x="229" y="215"/>
      <point x="210" y="272" type="curve"/>
      <point x="183" y="240"/>
      <point x="168" y="195"/>
      <point x="161" y="156" type="curve" smooth="yes"/>
      <point x="154" y="117"/>
      <point x="167" y="86"/>
      <point x="195" y="86" type="curve" smooth="yes"/>
      <point x="222" y="86"/>
      <point x="241" y="104"/>
      <point x="265" y="128" type="curve"/>
    </contour>
  </outline>
</glyph>
<glyph name="quotesingle" format="1">
  <advance width="151"/>
  <unicode hex="0027"/>
  <outline>
    <contour>
      <point x="142" y="466" type="line"/>
      <point x="184" y="735" type="line"/>
      <point x="289" y="735" type="line"/>
      <point x="217" y="466" type="line"/>
    </contour>
  </outline>
</glyph>
<glyph name="parenleft" format="1">
  <advance width="274"/>
  <unicode hex="0028"/>
  <outline>
    <contour>
      <point x="410" y="735" type="line"/>
      <point x="346" y="666"/>
      <point x="298" y="589"/>
      <point x="251" y="486" type="curve" smooth="yes"/>
      <point x="203" y="383"/>
      <point x="173" y="246"/>
      <point x="178" y="145" type="curve" smooth="yes"/>
      <point x="182" y="44"/>
      <point x="198" y="-33"/>
      <point x="231" y="-104" type="curve"/>
      <point x="144" y="-145" type="line"/>
      <point x="108" y="-61"/>
      <point x="88" y="25"/>
      <point x="83" y="138" type="curve" smooth="yes"/>
      <point x="80" y="193"/>
      <point x="85" y="252"/>
      <point x="98" y="315" type="curve" smooth="yes"/>
      <point x="111" y="378"/>
      <point x="133" y="437"/>
      <point x="158" y="493" type="curve" smooth="yes"/>
      <point x="183" y="548"/>
      <point x="211" y="596"/>
      <point x="238" y="639" type="curve" smooth="yes"/>
      <point x="270" y="688"/>
      <point x="304" y="733"/>
      <point x="339" y="776" type="curve"/>
    </contour>
  </outline>
</glyph>
<glyph name="slash" format="1">
  <advance width="352"/>
  <unicode hex="002F"/>
  <outline>
    <contour>
      <point x="425" y="735" type="line"/>
      <point x="504" y="735" type="line"/>
      <point x="70" y="-72" type="line"/>
      <point x="-11" y="-72" type="line"/>
    </contour>
  </outline>
</glyph>
<glyph name="two" format="1">
  <advance width="357"/>
  <unicode hex="0032"/>
  <outline>
    <contour>
      <point x="136" y="502" type="line"/>
      <point x="147" y="553" type="line" smooth="yes"/>
      <point x="158" y="602"/>
      <point x="175" y="650"/>
      <point x="203" y="685" type="curve" smooth="yes"/>
      <point x="232" y="720"/>
      <point x="271" y="743"/>
      <point x="331" y="743" type="curve" smooth="yes"/>
      <point x="387" y="743"/>
      <point x="419" y="722"/>
      <point x="434" y="690" type="curve"/>
      <point x="441" y="673"/>
      <point x="445" y="654"/>
      <point x="445" y="632" type="curve" smooth="yes"/>
      <point x="445" y="609"/>
      <point x="442" y="585"/>
      <point x="437" y="560" type="curve" smooth="yes"/>
      <point x="421" y="484"/>
      <point x="374" y="397"/>
      <point x="321" y="313" type="curve" smooth="yes"/>
      <point x="266" y="229"/>
      <point x="210" y="154"/>
      <point x="171" y="107" type="curve"/>
      <point x="342" y="107" type="line"/>
      <point x="320" y="0" type="line"/>
      <point x="27" y="0" type="line"/>
      <point x="49" y="107" type="line"/>
      <point x="93" y="158"/>
      <point x="133" y="210"/>
      <point x="172" y="262" type="curve" smooth="yes"/>
      <point x="205" y="307"/>
      <point x="236" y="355"/>
      <point x="265" y="407" type="curve" smooth="yes"/>
      <point x="293" y="458"/>
      <point x="316" y="508"/>
      <point x="327" y="553" type="curve"/>
      <point x="331" y="573"/>
      <point x="335" y="596"/>
      <point x="334" y="613" type="curve"/>
      <point x="331" y="630"/>
      <point x="326" y="643"/>
      <point x="310" y="643" type="curve" smooth="yes"/>
      <point x="295" y="643"/>
      <point x="284" y="632"/>
      <point x="275" y="616" type="curve"/>
      <point x="267" y="599"/>
      <point x="260" y="578"/>
      <point x="255" y="553" type="curve" smooth="yes"/>
      <point x="244" y="502" type="line"/>
    </contour>
  </outline>
</glyph>
<glyph name="three" format="1">
  <advance width="335"/>
  <unicode hex="0033"/>
  <outline>
    <contour>
      <point x="182" y="332" type="line"/>
      <point x="201" y="422" type="line"/>
      <point x="248" y="425"/>
      <point x="270" y="434"/>
      <point x="283" y="455" type="curve"/>
      <point x="296" y="474"/>
      <point x="300" y="501"/>
      <point x="304" y="521" type="curve" smooth="yes"/>
      <point x="306" y="531"/>
      <point x="308" y="542"/>
      <point x="311" y="553" type="curve" smooth="yes"/>
      <point x="316" y="574"/>
      <point x="320" y="597"/>
      <point x="320" y="616" type="curve" smooth="yes"/>
      <point x="320" y="635"/>
      <point x="314" y="648"/>
      <point x="297" y="648" type="curve" smooth="yes"/>
      <point x="284" y="648"/>
      <point x="275" y="642"/>
      <point x="267" y="623" type="curve" smooth="yes"/>
      <point x="258" y="603"/>
      <point x="250" y="572"/>
      <point x="239" y="523" type="curve"/>
      <point x="133" y="523" type="line"/>
      <point x="141" y="564"/>
      <point x="154" y="620"/>
      <point x="182" y="665" type="curve" smooth="yes"/>
      <point x="209" y="709"/>
      <point x="249" y="743"/>
      <point x="317" y="743" type="curve" smooth="yes"/>
      <point x="385" y="743"/>
      <point x="412" y="708"/>
      <point x="423" y="671" type="curve" smooth="yes"/>
      <point x="428" y="652"/>
      <point x="429" y="633"/>
      <point x="428" y="618" type="curve" smooth="yes"/>
      <point x="427" y="602"/>
      <point x="425" y="589"/>
      <point x="424" y="585" type="curve"/>
      <point x="401" y="476"/>
      <point x="371" y="424"/>
      <point x="331" y="391" type="curve"/>
      <point x="329" y="390" type="line"/>
      <point x="350" y="370"/>
      <point x="361" y="341"/>
      <point x="362" y="306" type="curve" smooth="yes"/>
      <point x="363" y="270"/>
      <point x="357" y="231"/>
      <point x="348" y="188" type="curve"/>
      <point x="348" y="186"/>
      <point x="346" y="179"/>
      <point x="343" y="167" type="curve" smooth="yes"/>
      <point x="338" y="146"/>
      <point x="326" y="115"/>
      <point x="307" y="83" type="curve" smooth="yes"/>
      <point x="288" y="51"/>
      <point x="263" y="22"/>
      <point x="228" y="5" type="curve" smooth="yes"/>
      <point x="211" y="-4"/>
      <point x="190" y="-8"/>
      <point x="167" y="-8" type="curve" smooth="yes"/>
      <point x="99" y="-8"/>
      <point x="71" y="26"/>
      <point x="62" y="71" type="curve"/>
      <point x="59" y="82"/>
      <point x="58" y="93"/>
      <point x="58" y="106" type="curve" smooth="yes"/>
      <point x="58" y="130"/>
      <point x="60" y="155"/>
      <point x="65" y="179" type="curve"/>
      <point x="67" y="191"/>
      <point x="69" y="202"/>
      <point x="71" y="212" type="curve"/>
      <point x="177" y="212" type="line"/>
      <point x="166" y="163"/>
      <point x="162" y="132"/>
      <point x="165" y="113" type="curve"/>
      <point x="166" y="93"/>
      <point x="174" y="87"/>
      <point x="187" y="87" type="curve" smooth="yes"/>
      <point x="204" y="87"/>
      <point x="216" y="99"/>
      <point x="224" y="118" type="curve"/>
      <point x="227" y="127"/>
      <point x="230" y="137"/>
      <point x="233" y="148" type="curve" smooth="yes"/>
      <point x="238" y="169"/>
      <point x="244" y="192"/>
      <point x="248" y="213" type="curve" smooth="yes"/>
      <point x="250" y="224"/>
      <point x="252" y="234"/>
      <point x="255" y="243" type="curve"/>
      <point x="263" y="279"/>
      <point x="261" y="304"/>
      <point x="241" y="319" type="curve" smooth="yes"/>
      <point x="230" y="327"/>
      <point x="214" y="331"/>
      <point x="191" y="332" type="curve"/>
    </contour>
  </outline>
</glyph>
<glyph name="four" format="1">
  <advance width="334"/>
  <unicode hex="0034"/>
  <outline>
    <contour>
      <point x="213" y="160" type="line"/>
      <point x="46" y="160" type="line"/>
      <point x="66" y="255" type="line"/>
      <point x="326" y="735" type="line"/>
      <point x="434" y="735" type="line"/>
      <point x="332" y="255" type="line"/>
      <point x="382" y="255" type="line"/>
      <point x="362" y="160" type="line"/>
      <point x="312" y="160" type="line"/>
      <point x="278" y="0" type="line"/>
      <point x="179" y="0" type="line"/>
    </contour>
    <contour>
      <point x="158" y="255" type="line"/>
      <point x="233" y="255" type="line"/>
      <point x="286" y="507" type="line"/>
      <point x="280" y="507" type="line"/>
      <point x="270" y="485" type="line"/>
    </contour>
  </outline>
</glyph>
<glyph name="colon" format="1">
  <advance width="177"/>
  <unicode hex="003A"/>
  <outline>
    <contour>
      <point x="152" y="547" type="line"/>
      <point x="257" y="547" type="line"/>
      <point x="233" y="436" type="line"/>
      <point x="128" y="436" type="line"/>
    </contour>
    <contour>
      <point x="59" y="111" type="line"/>
      <point x="164" y="111" type="line"/>
      <point x="141" y="0" type="line"/>
      <point x="36" y="0" type="line"/>
    </contour>
  </outline>
</glyph>
<glyph name="greater" format="1">
  <advance width="517"/>
  <unicode hex="003E"/>
  <outline>
    <contour>
      <point x="548" y="317" type="line"/>
      <point x="54" y="85" type="line"/>
      <point x="74" y="182" type="line"/>
      <point x="452" y="356" type="line"/>
      <point x="148" y="530" type="line"/>
      <point x="169" y="627" type="line"/>
      <point x="564" y="395" type="line"/>
    </contour>
  </outline>
</glyph>
<glyph name="at" format="1">
  <advance width="426"/>
  <unicode hex="0040"/>
  <outline>
    <contour>
      <point x="439" y="195" type="line"/>
      <point x="359" y="195" type="line"/>
      <point x="355" y="222" type="line"/>
      <point x="344" y="209"/>
      <point x="334" y="201"/>
      <point x="319" y="194" type="curve"/>
      <point x="310" y="191"/>
      <point x="302" y="189"/>
      <point x="293" y="189" type="curve" smooth="yes"/>
      <point x="240" y="189"/>
      <point x="229" y="226"/>
      <point x="240" y="273" type="curve" smooth="yes"/>
      <point x="290" y="510" type="line" smooth="yes"/>
      <point x="299" y="555"/>
      <point x="326" y="593"/>
      <point x="379" y="593" type="curve" smooth="yes"/>
      <point x="398" y="593"/>
      <point x="410" y="584"/>
      <point x="417" y="576" type="curve"/>
      <point x="421" y="571"/>
      <point x="424" y="567"/>
      <point x="427" y="560" type="curve"/>
      <point x="431" y="582" type="line"/>
      <point x="434" y="593"/>
      <point x="434" y="612"/>
      <point x="423" y="629" type="curve" smooth="yes"/>
      <point x="412" y="645"/>
      <point x="392" y="659"/>
      <point x="355" y="659" type="curve" smooth="yes"/>
      <point x="318" y="659"/>
      <point x="293" y="645"/>
      <point x="274" y="629" type="curve"/>
      <point x="257" y="612"/>
      <point x="248" y="593"/>
      <point x="245" y="582" type="curve"/>
      <point x="153" y="148" type="line"/>
      <point x="150" y="136"/>
      <point x="151" y="117"/>
      <point x="162" y="102" type="curve" smooth="yes"/>
      <point x="173" y="86"/>
      <point x="193" y="73"/>
      <point x="230" y="73" type="curve" smooth="yes"/>
      <point x="273" y="73"/>
      <point x="298" y="84"/>
      <point x="319" y="104" type="curve"/>
      <point x="384" y="62" type="line"/>
      <point x="349" y="26"/>
      <point x="297" y="-8"/>
      <point x="213" y="-8" type="curve" smooth="yes"/>
      <point x="140" y="-8"/>
      <point x="100" y="20"/>
      <point x="80" y="53" type="curve" smooth="yes"/>
      <point x="59" y="86"/>
      <point x="58" y="125"/>
      <point x="63" y="148" type="curve" smooth="yes"/>
      <point x="155" y="582" type="line" smooth="yes"/>
      <point x="160" y="606"/>
      <point x="178" y="646"/>
      <point x="213" y="681" type="curve" smooth="yes"/>
      <point x="248" y="716"/>
      <point x="299" y="743"/>
      <point x="372" y="743" type="curve" smooth="yes"/>
      <point x="445" y="743"/>
      <point x="485" y="716"/>
      <point x="506" y="681" type="curve" smooth="yes"/>
      <point x="526" y="646"/>
      <point x="526" y="606"/>
      <point x="521" y="582" type="curve" smooth="yes"/>
    </contour>
    <contour>
      <point x="414" y="502" type="line" smooth="yes"/>
      <point x="418" y="519"/>
      <point x="412" y="528"/>
      <point x="396" y="528" type="curve" smooth="yes"/>
      <point x="381" y="528"/>
      <point x="371" y="519"/>
      <point x="367" y="502" type="curve" smooth="yes"/>
      <point x="320" y="280" type="line" smooth="yes"/>
      <point x="316" y="263"/>
      <point x="322" y="254"/>
      <point x="337" y="254" type="curve" smooth="yes"/>
      <point x="354" y="254"/>
      <point x="364" y="263"/>
      <point x="367" y="280" type="curve" smooth="yes"/>
    </contour>
  </outline>
</glyph>
<glyph name="F" format="1">
  <advance width="301"/>
  <unicode hex="0046"/>
  <outline>
    <contour>
      <point x="429" y="624" type="line"/>
      <point x="280" y="624" type="line"/>
      <point x="239" y="431" type="line"/>
      <point x="339" y="431" type="line"/>
      <point x="316" y="320" type="line"/>
      <point x="216" y="320" type="line"/>
      <point x="148" y="0" type="line"/>
      <point x="40" y="0" type="line"/>
      <point x="196" y="735" type="line"/>
      <point x="453" y="735" type="line"/>
    </contour>
  </outline>
</glyph>
<glyph name="H" format="1">
  <advance width="380"/>
  <unicode hex="0048"/>
  <outline>
    <contour>
      <point x="300" y="320" type="line"/>
      <point x="216" y="320" type="line"/>
      <point x="148" y="0" type="line"/>
      <point x="40" y="0" type="line"/>
      <point x="196" y="735" type="line"/>
      <point x="304" y="735" type="line"/>
      <point x="239" y="431" type="line"/>
      <point x="323" y="431" type="line"/>
      <point x="388" y="735" type="line"/>
      <point x="496" y="735" type="line"/>
      <point x="340" y="0" type="line"/>
      <point x="232" y="0" type="line"/>
    </contour>
    <contour>
      <point x="190" y="368" type="move" name="center"/>
    </contour>
    <contour>
      <point x="190" y="735" type="move" name="top"/>
    </contour>
  </outline>
</glyph>
<glyph name="J" format="1">
  <advance width="207"/>
  <unicode hex="004A"/>
  <outline>
    <contour>
      <point x="27" y="99" type="line"/>
      <point x="48" y="96"/>
      <point x="65" y="102"/>
      <point x="79" y="117" type="curve"/>
      <point x="86" y="123"/>
      <point x="92" y="135"/>
      <point x="96" y="153" type="curve" smooth="yes"/>
      <point x="220" y="735" type="line"/>
      <point x="328" y="735" type="line"/>
      <point x="200" y="136" type="line" smooth="yes"/>
      <point x="192" y="96"/>
      <point x="174" y="59"/>
      <point x="143" y="32" type="curve" smooth="yes"/>
      <point x="112" y="5"/>
      <point x="68" y="-11"/>
      <point x="4" y="-7" type="curve"/>
    </contour>
    <contour>
      <point x="104" y="735" type="move" name="top"/>
    </contour>
  </outline>
</glyph>
<glyph name="L" format="1">
  <advance width="295"/>
  <unicode hex="004C"/>
  <outline>
    <contour>
      <point x="196" y="735" type="line"/>
      <point x="304" y="735" type="line"/>
      <point x="169" y="100" type="line"/>
      <point x="312" y="100" type="line"/>
      <point x="291" y="0" type="line"/>
      <point x="40" y="0" type="line"/>
    </contour>
    <contour>
      <point x="148" y="735" type="move" name="top"/>
    </contour>
    <contour>
      <point x="148" y="0" type="move" name="bottom"/>
    </contour>
  </outline>
</glyph>
<glyph name="M" format="1">
  <advance width="484"/>
  <unicode hex="004D"/>
  <outline>
    <contour>
      <point x="219" y="0" type="line"/>
      <point x="248" y="462" type="line"/>
      <point x="250" y="493" type="line"/>
      <point x="244" y="493" type="line"/>
      <point x="140" y="0" type="line"/>
      <point x="40" y="0" type="line"/>
      <point x="196" y="735" type="line"/>
      <point x="328" y="735" type="line"/>
      <point x="320" y="399" type="line"/>
      <point x="317" y="360" type="line"/>
      <point x="319" y="360" type="line"/>
      <point x="332" y="399" type="line"/>
      <point x="468" y="735" type="line"/>
      <point x="600" y="735" type="line"/>
      <point x="444" y="0" type="line"/>
      <point x="344" y="0" type="line"/>
      <point x="448" y="493" type="line"/>
      <point x="442" y="493" type="line"/>
      <point x="432" y="462" type="line"/>
      <point x="265" y="0" type="line"/>
    </contour>
  </outline>
</glyph>
<glyph name="T" format="1">
  <advance width="316"/>
  <unicode hex="0054"/>
  <outline>
    <contour>
      <point x="134" y="624" type="line"/>
      <point x="158" y="735" type="line"/>
      <point x="470" y="735" type="line"/>
      <point x="446" y="624" type="line"/>
      <point x="344" y="624" type="line"/>
      <point x="212" y="0" type="line"/>
      <point x="104" y="0" type="line"/>
      <point x="236" y="624" type="line"/>
    </contour>
    <contour>
      <point x="158" y="368" type="move" name="center"/>
    </contour>
    <contour>
      <point x="158" y="0" type="move" name="bottom"/>
    </contour>
    <contour>
      <point x="158" y="735" type="move" name="top"/>
    </contour>
  </outline>
</glyph>
<glyph name="V" format="1">
  <advance width="350"/>
  <unicode hex="0056"/>
  <outline>
    <contour>
      <point x="392" y="735" type="line"/>
      <point x="497" y="735" type="line"/>
      <point x="229" y="0" type="line"/>
      <point x="121" y="0" type="line"/>
      <point x="165" y="735" type="line"/>
      <point x="270" y="735" type="line"/>
      <point x="238" y="331" type="line"/>
      <point x="235" y="300" type="line"/>
      <point x="241" y="300" type="line"/>
      <point x="252" y="331" type="line"/>
    </contour>
  </outline>
</glyph>
<glyph name="W" format="1">
  <advance width="476"/>
  <unicode hex="0057"/>
  <outline>
    <contour>
      <point x="165" y="0" type="line"/>
      <point x="81" y="0" type="line"/>
      <point x="138" y="735" type="line"/>
      <point x="238" y="735" type="line"/>
      <point x="200" y="353" type="line"/>
      <point x="196" y="329" type="line"/>
      <point x="204" y="329" type="line"/>
      <point x="213" y="353" type="line"/>
      <point x="340" y="735" type="line"/>
      <point x="418" y="735" type="line"/>
      <point x="383" y="353" type="line"/>
      <point x="380" y="329" type="line"/>
      <point x="388" y="329" type="line"/>
      <point x="396" y="353" type="line"/>
      <point x="520" y="735" type="line"/>
      <point x="620" y="735" type="line"/>
      <point x="365" y="0" type="line"/>
      <point x="281" y="0" type="line"/>
      <point x="304" y="348" type="line"/>
      <point x="308" y="391" type="line"/>
      <point x="304" y="391" type="line"/>
      <point x="288" y="348" type="line"/>
    </contour>
    <contour>
      <point x="223" y="735" type="move" name="top"/>
    </contour>
  </outline>
</glyph>
<glyph name="backslash" format="1">
  <advance width="387"/>
  <unicode hex="005C"/>
  <outline>
    <contour>
      <point x="364" y="-88" type="line"/>
      <point x="282" y="-88" type="line"/>
      <point x="179" y="826" type="line"/>
      <point x="258" y="826" type="line"/>
    </contour>
  </outline>
</glyph>
<glyph name="bracketright" format="1">
  <advance width="263"/>
  <unicode hex="005D"/>
  <outline>
    <contour>
      <point x="184" y="735" type="line"/>
      <point x="379" y="735" type="line"/>
      <point x="200" y="-104" type="line"/>
      <point x="5" y="-104" type="line"/>
      <point x="26" y="-8" type="line"/>
      <point x="125" y="-8" type="line"/>
      <point x="262" y="639" type="line"/>
      <point x="163" y="639" type="line"/>
    </contour>
  </outline>
</glyph>
<glyph name="asciicircum" format="1">
  <advance width="538"/>
  <unicode hex="005E"/>
  <outline>
    <contour>
      <point x="482" y="735" type="line"/>
      <point x="595" y="395" type="line"/>
      <point x="498" y="395" type="line"/>
      <point x="409" y="660" type="line"/>
      <point x="206" y="395" type="line"/>
      <point x="109" y="395" type="line"/>
      <point x="368" y="735" type="line"/>
    </contour>
  </outline>
</glyph>
<glyph name="b" format="1">
  <advance width="335"/>
  <unicode hex="0062"/>
  <outline>
    <contour>
      <point x="196" y="735" type="line"/>
      <point x="297" y="735" type="line"/>
      <point x="249" y="511" type="line"/>
      <point x="270" y="527"/>
      <point x="286" y="539"/>
      <point x="309" y="548" type="curve"/>
      <point x="318" y="553"/>
      <point x="328" y="555"/>
      <point x="338" y="555" type="curve" smooth="yes"/>
      <point x="366" y="555"/>
      <point x="382" y="539"/>
      <point x="391" y="519" type="curve"/>
      <point x="398" y="498"/>
      <point x="399" y="471"/>
      <point x="394" y="448" type="curve" smooth="yes"/>
      <point x="320" y="99" type="line" smooth="yes"/>
      <point x="315" y="76"/>
      <point x="303" y="49"/>
      <point x="287" y="29" type="curve"/>
      <point x="268" y="8"/>
      <point x="247" y="-8"/>
      <point x="219" y="-8" type="curve" smooth="yes"/>
      <point x="200" y="-8"/>
      <point x="182" y="3"/>
      <point x="169" y="14" type="curve"/>
      <point x="162" y="21"/>
      <point x="155" y="28"/>
      <point x="148" y="36" type="curve"/>
      <point x="141" y="0" type="line"/>
      <point x="40" y="0" type="line"/>
    </contour>
    <contour>
      <point x="166" y="120" type="line" smooth="yes"/>
      <point x="162" y="101"/>
      <point x="174" y="87"/>
      <point x="189" y="87" type="curve" smooth="yes"/>
      <point x="204" y="87"/>
      <point x="219" y="101"/>
      <point x="223" y="120" type="curve" smooth="yes"/>
      <point x="288" y="427" type="line" smooth="yes"/>
      <point x="292" y="446"/>
      <point x="283" y="460"/>
      <point x="268" y="460" type="curve" smooth="yes"/>
      <point x="253" y="460"/>
      <point x="235" y="443"/>
      <point x="231" y="427" type="curve"/>
    </contour>
  </outline>
</glyph>
<glyph name="e" format="1">
  <advance width="322"/>
  <unicode hex="0065"/>
  <outline>
    <contour>
      <point x="334" y="196" type="line"/>
      <point x="321" y="133" type="line"/>
      <point x="306" y="80"/>
      <point x="283" y="43"/>
      <point x="240" y="14" type="curve" smooth="yes"/>
      <point x="219" y="-1"/>
      <point x="193" y="-8"/>
      <point x="160" y="-8" type="curve" smooth="yes"/>
      <point x="95" y="-8"/>
      <point x="69" y="28"/>
      <point x="61" y="64" type="curve" smooth="yes"/>
      <point x="56" y="87"/>
      <point x="56" y="111"/>
      <point x="60" y="136" type="curve"/>
      <point x="119" y="411" type="line"/>
      <point x="134" y="464"/>
      <point x="158" y="502"/>
      <point x="201" y="533" type="curve"/>
      <point x="220" y="548"/>
      <point x="247" y="555"/>
      <point x="280" y="555" type="curve" smooth="yes"/>
      <point x="312" y="555"/>
      <point x="335" y="546"/>
      <point x="351" y="533" type="curve" smooth="yes"/>
      <point x="367" y="520"/>
      <point x="375" y="501"/>
      <point x="379" y="484" type="curve" smooth="yes"/>
      <point x="384" y="463"/>
      <point x="385" y="441"/>
      <point x="380" y="414" type="curve" smooth="yes"/>
      <point x="347" y="255" type="line"/>
      <point x="180" y="255" type="line"/>
      <point x="154" y="136" type="line"/>
      <point x="151" y="117"/>
      <point x="153" y="101"/>
      <point x="160" y="89" type="curve"/>
      <point x="164" y="84"/>
      <point x="171" y="81"/>
      <point x="180" y="81" type="curve" smooth="yes"/>
      <point x="199" y="81"/>
      <point x="210" y="93"/>
      <point x="217" y="108" type="curve"/>
      <point x="222" y="115"/>
      <point x="225" y="125"/>
      <point x="227" y="136" type="curve" smooth="yes"/>
      <point x="240" y="196" type="line"/>
    </contour>
    <contour>
      <point x="196" y="334" type="line"/>
      <point x="269" y="334" type="line"/>
      <point x="286" y="411" type="line" smooth="yes"/>
      <point x="290" y="432"/>
      <point x="290" y="447"/>
      <point x="282" y="459" type="curve"/>
      <point x="278" y="464"/>
      <point x="271" y="467"/>
      <point x="262" y="467" type="curve" smooth="yes"/>
      <point x="243" y="467"/>
      <point x="232" y="454"/>
      <point x="224" y="439" type="curve" smooth="yes"/>
      <point x="220" y="432"/>
      <point x="216" y="423"/>
      <point x="213" y="411" type="curve" smooth="yes"/>
    </contour>
    <contour>
      <point x="290" y="10" type="move" name="ogonek"/>
    </contour>
    <contour>
      <point x="161" y="0" type="move" name="bottom"/>
    </contour>
    <contour>
      <point x="161" y="547" type="move" name="top"/>
    </contour>
  </outline>
</glyph>
<glyph name="g" format="1">
  <advance width="342"/>
  <unicode hex="0067"/>
  <outline>
    <contour>
      <point x="343" y="264" type="line"/>
      <point x="316" y="165"/>
      <point x="245" y="129"/>
      <point x="184" y="129" type="curve" smooth="yes"/>
      <point x="175" y="129" type="line" smooth="yes"/>
      <point x="170" y="129"/>
      <point x="167" y="129"/>
      <point x="165" y="130" type="curve"/>
      <point x="154" y="122"/>
      <point x="148" y="114"/>
      <point x="146" y="105" type="curve" smooth="yes"/>
      <point x="143" y="93"/>
      <point x="151" y="86"/>
      <point x="166" y="82" type="curve"/>
      <point x="181" y="77"/>
      <point x="197" y="74"/>
      <point x="216" y="71" type="curve" smooth="yes"/>
      <point x="247" y="67"/>
      <point x="279" y="59"/>
      <point x="303" y="40" type="curve" smooth="yes"/>
      <point x="326" y="21"/>
      <point x="340" y="-8"/>
      <point x="329" y="-56" type="curve" smooth="yes"/>
      <point x="317" y="-109"/>
      <point x="287" y="-145"/>
      <point x="250" y="-166" type="curve" smooth="yes"/>
      <point x="213" y="-187"/>
      <point x="167" y="-196"/>
      <point x="126" y="-196" type="curve" smooth="yes"/>
      <point x="78" y="-195"/>
      <point x="39" y="-188"/>
      <point x="14" y="-172" type="curve" smooth="yes"/>
      <point x="-11" y="-156"/>
      <point x="-21" y="-130"/>
      <point x="-13" y="-90" type="curve" smooth="yes"/>
      <point x="-9" y="-71"/>
      <point x="3" y="-56"/>
      <point x="22" y="-41" type="curve" smooth="yes"/>
      <point x="41" y="-26"/>
      <point x="62" y="-16"/>
      <point x="83" y="-7" type="curve"/>
      <point x="52" y="2"/>
      <point x="27" y="23"/>
      <point x="38" y="66" type="curve"/>
      <point x="41" y="82"/>
      <point x="53" y="98"/>
      <point x="69" y="113" type="curve" smooth="yes"/>
      <point x="84" y="128"/>
      <point x="101" y="140"/>
      <point x="118" y="148" type="curve"/>
      <point x="93" y="167"/>
      <point x="85" y="197"/>
      <point x="84" y="222" type="curve" smooth="yes"/>
      <point x="83" y="239"/>
      <point x="83" y="254"/>
      <point x="85" y="267" type="curve"/>
      <point x="117" y="416" type="line"/>
      <point x="132" y="467"/>
      <point x="156" y="504"/>
      <point x="197" y="533" type="curve"/>
      <point x="216" y="548"/>
      <point x="242" y="555"/>
      <point x="274" y="555" type="curve" smooth="yes"/>
      <point x="325" y="555"/>
      <point x="352" y="532"/>
      <point x="365" y="505" type="curve"/>
      <point x="373" y="512"/>
      <point x="387" y="524"/>
      <point x="406" y="535" type="curve" smooth="yes"/>
      <point x="425" y="546"/>
      <point x="442" y="555"/>
      <point x="458" y="555" type="curve"/>
      <point x="439" y="465" type="line"/>
      <point x="412" y="465"/>
      <point x="391" y="460"/>
      <point x="378" y="453" type="curve"/>
      <point x="378" y="440" type="line"/>
      <point x="377" y="435"/>
      <point x="376" y="431"/>
      <point x="377" y="429" type="curve"/>
      <point x="377" y="428"/>
      <point x="377" y="426"/>
      <point x="377" y="424" type="curve"/>
      <point x="376" y="422"/>
      <point x="376" y="420"/>
      <point x="376" y="419" type="curve"/>
    </contour>
    <contour>
      <point x="275" y="412" type="line" smooth="yes"/>
      <point x="279" y="429"/>
      <point x="278" y="443"/>
      <point x="272" y="454" type="curve"/>
      <point x="269" y="459"/>
      <point x="263" y="462"/>
      <point x="255" y="462" type="curve" smooth="yes"/>
      <point x="239" y="462"/>
      <point x="229" y="449"/>
      <point x="222" y="437" type="curve"/>
      <point x="219" y="430"/>
      <point x="216" y="421"/>
      <point x="215" y="412" type="curve"/>
      <point x="183" y="262" type="line"/>
      <point x="178" y="245"/>
      <point x="179" y="231"/>
      <point x="185" y="221" type="curve" smooth="yes"/>
      <point x="188" y="216"/>
      <point x="194" y="213"/>
      <point x="202" y="213" type="curve" smooth="yes"/>
      <point x="219" y="213"/>
      <point x="228" y="225"/>
      <point x="235" y="237" type="curve"/>
      <point x="238" y="245"/>
      <point x="241" y="253"/>
      <point x="243" y="262" type="curve" smooth="yes"/>
    </contour>
    <contour>
      <point x="135" y="-25" type="line"/>
      <point x="112" y="-37"/>
      <point x="92" y="-52"/>
      <point x="88" y="-73" type="curve" smooth="yes"/>
      <point x="84" y="-94"/>
      <point x="99" y="-111"/>
      <point x="146" y="-111" type="curve" smooth="yes"/>
      <point x="163" y="-111"/>
      <point x="183" y="-109"/>
      <point x="199" y="-102" type="curve" smooth="yes"/>
      <point x="215" y="-95"/>
      <point x="228" y="-87"/>
      <point x="231" y="-74" type="curve" smooth="yes"/>
      <point x="235" y="-55"/>
      <point x="226" y="-47"/>
      <point x="213" y="-42" type="curve"/>
      <point x="206" y="-39"/>
      <point x="197" y="-37"/>
      <point x="185" y="-35" type="curve" smooth="yes"/>
    </contour>
    <contour>
      <point x="171" y="547" type="move" name="top"/>
    </contour>
  </outline>
</glyph>
<glyph name="l" format="1">
  <advance width="181"/>
  <unicode hex="006C"/>
  <outline>
    <contour>
      <point x="40" y="0" type="line"/>
      <point x="196" y="735" type="line"/>
      <point x="297" y="735" type="line"/>
      <point x="141" y="0" type="line"/>
    </contour>
    <contour>
      <point x="91" y="547" type="move" name="top"/>
    </contour>
    <contour>
      <point x="91" y="0" type="move" name="bottom"/>
    </contour>
    <contour>
      <point x="161" y="547" type="move" name="topright"/>
    </contour>
  </outline>
</glyph>
<glyph name="m" format="1">
  <advance width="499"/>
  <unicode hex="006D"/>
  <outline>
    <contour>
      <point x="301" y="0" type="line"/>
      <point x="206" y="0" type="line"/>
      <point x="298" y="433" type="line" smooth="yes"/>
      <point x="302" y="454"/>
      <point x="287" y="457"/>
      <point x="276" y="457" type="curve" smooth="yes"/>
      <point x="265" y="457"/>
      <point x="254" y="451"/>
      <point x="246" y="444" type="curve"/>
      <point x="241" y="440"/>
      <point x="236" y="436"/>
      <point x="232" y="431" type="curve"/>
      <point x="141" y="0" type="line"/>
      <point x="40" y="0" type="line"/>
      <point x="156" y="547" type="line"/>
      <point x="257" y="547" type="line"/>
      <point x="247" y="501" type="line"/>
      <point x="249" y="502"/>
      <point x="254" y="505"/>
      <point x="261" y="512" type="curve"/>
      <point x="276" y="523"/>
      <point x="295" y="537"/>
      <point x="315" y="548" type="curve" smooth="yes"/>
      <point x="324" y="553"/>
      <point x="333" y="555"/>
      <point x="342" y="555" type="curve" smooth="yes"/>
      <point x="378" y="555"/>
      <point x="393" y="526"/>
      <point x="398" y="494" type="curve"/>
      <point x="400" y="495"/>
      <point x="403" y="497"/>
      <point x="406" y="500" type="curve" smooth="yes"/>
      <point x="409" y="503"/>
      <point x="412" y="506"/>
      <point x="417" y="509" type="curve"/>
      <point x="434" y="524"/>
      <point x="453" y="536"/>
      <point x="474" y="547" type="curve"/>
      <point x="485" y="552"/>
      <point x="494" y="555"/>
      <point x="502" y="555" type="curve" smooth="yes"/>
      <point x="529" y="555"/>
      <point x="545" y="539"/>
      <point x="553" y="519" type="curve"/>
      <point x="560" y="498"/>
      <point x="561" y="471"/>
      <point x="556" y="448" type="curve" smooth="yes"/>
      <point x="461" y="0" type="line"/>
      <point x="366" y="0" type="line"/>
      <point x="458" y="433" type="line" smooth="yes"/>
      <point x="462" y="454"/>
      <point x="447" y="457"/>
      <point x="436" y="457" type="curve" smooth="yes"/>
      <point x="425" y="457"/>
      <point x="414" y="451"/>
      <point x="406" y="444" type="curve"/>
      <point x="401" y="440"/>
      <point x="396" y="436"/>
      <point x="392" y="431" type="curve"/>
    </contour>
  </outline>
</glyph>
<glyph name="o" format="1">
  <advance width="321"/>
  <unicode hex="006F"/>
  <outline>
    <contour>
      <point x="318" y="133" type="line"/>
      <point x="303" y="80"/>
      <point x="281" y="43"/>
      <point x="238" y="14" type="curve" smooth="yes"/>
      <point x="217" y="-1"/>
      <point x="191" y="-8"/>
      <point x="158" y="-8" type="curve" smooth="yes"/>
      <point x="126" y="-8"/>
      <point x="103" y="1"/>
      <point x="88" y="15" type="curve" smooth="yes"/>
      <point x="72" y="29"/>
      <point x="64" y="45"/>
      <point x="60" y="64" type="curve" smooth="yes"/>
      <point x="55" y="87"/>
      <point x="55" y="111"/>
      <point x="59" y="136" type="curve"/>
      <point x="118" y="411" type="line"/>
      <point x="133" y="464"/>
      <point x="155" y="502"/>
      <point x="198" y="533" type="curve"/>
      <point x="217" y="548"/>
      <point x="244" y="555"/>
      <point x="277" y="555" type="curve" smooth="yes"/>
      <point x="309" y="555"/>
      <point x="332" y="546"/>
      <point x="348" y="533" type="curve" smooth="yes"/>
      <point x="364" y="520"/>
      <point x="372" y="501"/>
      <point x="376" y="484" type="curve" smooth="yes"/>
      <point x="381" y="463"/>
      <point x="382" y="441"/>
      <point x="377" y="414" type="curve" smooth="yes"/>
    </contour>
    <contour>
      <point x="282" y="411" type="line" smooth="yes"/>
      <point x="287" y="432"/>
      <point x="286" y="448"/>
      <point x="279" y="459" type="curve"/>
      <point x="275" y="464"/>
      <point x="268" y="467"/>
      <point x="259" y="467" type="curve" smooth="yes"/>
      <point x="240" y="467"/>
      <point x="229" y="454"/>
      <point x="222" y="439" type="curve"/>
      <point x="217" y="431"/>
      <point x="214" y="422"/>
      <point x="213" y="411" type="curve"/>
      <point x="154" y="136" type="line"/>
      <point x="149" y="117"/>
      <point x="150" y="101"/>
      <point x="157" y="89" type="curve"/>
      <point x="161" y="84"/>
      <point x="168" y="81"/>
      <point x="177" y="81" type="curve" smooth="yes"/>
      <point x="196" y="81"/>
      <point x="207" y="93"/>
      <point x="214" y="108" type="curve"/>
      <point x="219" y="116"/>
      <point x="222" y="125"/>
      <point x="223" y="136" type="curve"/>
    </contour>
    <contour>
      <point x="161" y="547" type="move" name="top"/>
    </contour>
  </outline>
</glyph>
<glyph name="v" format="1">
  <advance width="294"/>
  <unicode hex="0076"/>
  <outline>
    <contour>
      <point x="97" y="0" type="line"/>
      <point x="124" y="547" type="line"/>
      <point x="222" y="547" type="line"/>
      <point x="187" y="230" type="line"/>
      <point x="184" y="195" type="line"/>
      <point x="192" y="195" type="line"/>
      <point x="203" y="230" type="line"/>
      <point x="304" y="547" type="line"/>
      <point x="402" y="547" type="line"/>
      <point x="197" y="0" type="line"/>
    </contour>
  </outline>
</glyph>
<glyph name="x" format="1">
  <advance width="302"/>
  <unicode hex="0078"/>
  <outline>
    <contour>
      <point x="161" y="282" type="line"/>
      <point x="132" y="547" type="line"/>
      <point x="227" y="547" type="line"/>
      <point x="236" y="419" type="line"/>
      <point x="235" y="404" type="line"/>
      <point x="237" y="404" type="line"/>
      <point x="244" y="419" type="line"/>
      <point x="307" y="547" type="line"/>
      <point x="402" y="547" type="line"/>
      <point x="259" y="282" type="line"/>
      <point x="294" y="0" type="line"/>
      <point x="196" y="0" type="line"/>
      <point x="184" y="138" type="line"/>
      <point x="184" y="153" type="line"/>
      <point x="182" y="153" type="line"/>
      <point x="176" y="138" type="line"/>
      <point x="106" y="0" type="line"/>
      <point x="8" y="0" type="line"/>
    </contour>
  </outline>
</glyph>
<glyph name="z" format="1">
  <advance width="260"/>
  <unicode hex="007A"/>
  <outline>
    <contour>
      <point x="23" y="82" type="line"/>
      <point x="241" y="455" type="line"/>
      <point x="124" y="455" type="line"/>
      <point x="144" y="547" type="line"/>
      <point x="368" y="547" type="line"/>
      <point x="350" y="465" type="line"/>
      <point x="132" y="92" type="line"/>
      <point x="271" y="92" type="line"/>
      <point x="252" y="0" type="line"/>
      <point x="6" y="0" type="line"/>
    </contour>
    <contour>
      <point x="130" y="547" type="move" name="top"/>
    </contour>
  </outline>
</glyph>
<glyph name="braceleft" format="1">
  <advance width="336"/>
  <unicode hex="007B"/>
  <outline>
    <contour>
      <point x="448" y="659" type="line"/>
      <point x="405" y="659"/>
      <point x="376" y="656"/>
      <point x="353" y="641" type="curve" smooth="yes"/>
      <point x="330" y="626"/>
      <point x="318" y="603"/>
      <point x="309" y="563" type="curve" smooth="yes"/>
      <point x="268" y="369" type="line" smooth="yes"/>
      <point x="257" y="316"/>
      <point x="227" y="285"/>
      <point x="183" y="261" type="curve"/>
      <point x="218" y="236"/>
      <point x="233" y="205"/>
      <point x="222" y="153" type="curve" smooth="yes"/>
      <point x="181" y="-41" type="line" smooth="yes"/>
      <point x="172" y="-81"/>
      <point x="175" y="-104"/>
      <point x="191" y="-119" type="curve" smooth="yes"/>
      <point x="207" y="-134"/>
      <point x="235" y="-137"/>
      <point x="278" y="-137" type="curve"/>
      <point x="261" y="-221" type="line"/>
      <point x="182" y="-222"/>
      <point x="131" y="-215"/>
      <point x="103" y="-188" type="curve" smooth="yes"/>
      <point x="74" y="-161"/>
      <point x="69" y="-117"/>
      <point x="85" y="-41" type="curve" smooth="yes"/>
      <point x="126" y="153" type="line"/>
      <point x="129" y="160"/>
      <point x="129" y="175"/>
      <point x="122" y="191" type="curve" smooth="yes"/>
      <point x="115" y="206"/>
      <point x="103" y="220"/>
      <point x="76" y="221" type="curve"/>
      <point x="93" y="301" type="line"/>
      <point x="120" y="301"/>
      <point x="139" y="314"/>
      <point x="152" y="330" type="curve" smooth="yes"/>
      <point x="158" y="337"/>
      <point x="163" y="345"/>
      <point x="166" y="353" type="curve"/>
      <point x="169" y="360"/>
      <point x="171" y="366"/>
      <point x="172" y="369" type="curve"/>
      <point x="213" y="563" type="line" smooth="yes"/>
      <point x="229" y="639"/>
      <point x="254" y="683"/>
      <point x="293" y="710" type="curve" smooth="yes"/>
      <point x="333" y="737"/>
      <point x="389" y="744"/>
      <point x="465" y="743" type="curve"/>
    </contour>
  </outline>
</glyph>
<glyph name="asciitilde" format="1">
  <advance width="625"/>
  <unicode hex="007E"/>
  <outline>
    <contour>
      <point x="195" y="660" type="line"/>
      <point x="226" y="716"/>
      <point x="263" y="755"/>
      <point x="311" y="787" type="curve"/>
      <point x="336" y="802"/>
      <point x="362" y="810"/>
      <point x="391" y="810" type="curve" smooth="yes"/>
      <point x="420" y="810"/>
      <point x="443" y="803"/>
      <point x="463" y="794" type="curve"/>
      <point x="472" y="789"/>
      <point x="481" y="784"/>
      <point x="490" y="778" type="curve"/>
      <point x="498" y="772"/>
      <point x="506" y="766"/>
      <point x="515" y="760" type="curve"/>
      <point x="538" y="741"/>
      <point x="562" y="725"/>
      <point x="593" y="725" type="curve" smooth="yes"/>
      <point x="624" y="725"/>
      <point x="652" y="746"/>
      <point x="672" y="769" type="curve" smooth="yes"/>
      <point x="684" y="782"/>
      <point x="694" y="797"/>
      <point x="705" y="814" type="curve"/>
      <point x="765" y="786" type="line"/>
      <point x="730" y="729"/>
      <point x="696" y="689"/>
      <point x="649" y="658" type="curve" smooth="yes"/>
      <point x="626" y="643"/>
      <point x="600" y="635"/>
      <point x="573" y="635" type="curve" smooth="yes"/>
      <point x="517" y="635"/>
      <point x="486" y="659"/>
      <point x="451" y="684" type="curve"/>
      <point x="427" y="703"/>
      <point x="403" y="720"/>
      <point x="372" y="720" type="curve" smooth="yes"/>
      <point x="337" y="720"/>
      <point x="308" y="699"/>
      <point x="287" y="676" type="curve" smooth="yes"/>
      <point x="275" y="663"/>
      <point x="264" y="649"/>
      <point x="255" y="632" type="curve"/>
    </contour>
  </outline>
</glyph>
<glyph name="exclamdown" format="1">
  <advance width="189"/>
  <unicode hex="00A1"/>
  <outline>
    <contour>
      <point x="158" y="547" type="line"/>
      <point x="263" y="547" type="line"/>
      <point x="239" y="436" type="line"/>
      <point x="134" y="436" type="line"/>
    </contour>
    <contour>
      <point x="137" y="349" type="line"/>
      <point x="200" y="349" type="line"/>
      <point x="113" y="-188" type="line"/>
      <point x="-3" y="-188" type="line"/>
    </contour>
  </outline>
</glyph>
<glyph name="cent" format="1">
  <advance width="311"/>
  <unicode hex="00A2"/>
  <outline>
    <contour>
      <point x="356" y="765" type="line"/>
      <point x="331" y="646" type="line"/>
      <point x="391" y="635"/>
      <point x="412" y="593"/>
      <point x="391" y="492" type="curve" smooth="yes"/>
      <point x="382" y="449" type="line"/>
      <point x="290" y="449" type="line"/>
      <point x="304" y="515" type="line" smooth="yes"/>
      <point x="311" y="548"/>
      <point x="300" y="559"/>
      <point x="277" y="559" type="curve" smooth="yes"/>
      <point x="250" y="559"/>
      <point x="237" y="535"/>
      <point x="233" y="515" type="curve" smooth="yes"/>
      <point x="170" y="220" type="line" smooth="yes"/>
      <point x="166" y="200"/>
      <point x="169" y="176"/>
      <point x="196" y="176" type="curve" smooth="yes"/>
      <point x="219" y="176"/>
      <point x="234" y="187"/>
      <point x="241" y="220" type="curve" smooth="yes"/>
      <point x="257" y="296" type="line"/>
      <point x="349" y="296" type="line"/>
      <point x="338" y="243" type="line" smooth="yes"/>
      <point x="315" y="139"/>
      <point x="276" y="97"/>
      <point x="212" y="88" type="curve"/>
      <point x="181" y="-60" type="line"/>
      <point x="121" y="-60" type="line"/>
      <point x="152" y="87" type="line"/>
      <point x="93" y="96"/>
      <point x="61" y="140"/>
      <point x="84" y="248" type="curve" smooth="yes"/>
      <point x="135" y="487" type="line" smooth="yes"/>
      <point x="158" y="594"/>
      <point x="208" y="638"/>
      <point x="271" y="647" type="curve"/>
      <point x="296" y="765" type="line"/>
    </contour>
  </outline>
</glyph>
<glyph name="sterling" format="1">
  <advance width="399"/>
  <unicode hex="00A3"/>
  <outline>
    <contour>
      <point x="365" y="547" type="line"/>
      <point x="370" y="571"/>
      <point x="372" y="595"/>
      <point x="368" y="614" type="curve" smooth="yes"/>
      <point x="364" y="633"/>
      <point x="351" y="643"/>
      <point x="329" y="643" type="curve" smooth="yes"/>
      <point x="313" y="643"/>
      <point x="300" y="632"/>
      <point x="289" y="616" type="curve" smooth="yes"/>
      <point x="278" y="600"/>
      <point x="272" y="580"/>
      <point x="268" y="561" type="curve" smooth="yes"/>
      <point x="256" y="508"/>
      <point x="262" y="452"/>
      <point x="267" y="396" type="curve"/>
      <point x="267" y="384" type="line"/>
      <point x="370" y="384" type="line"/>
      <point x="356" y="317" type="line"/>
      <point x="271" y="317" type="line"/>
      <point x="274" y="250"/>
      <point x="264" y="222"/>
      <point x="247" y="183" type="curve" smooth="yes"/>
      <point x="238" y="164"/>
      <point x="227" y="144"/>
      <point x="214" y="125" type="curve"/>
      <point x="226" y="119"/>
      <point x="236" y="113"/>
      <point x="244" y="107" type="curve"/>
      <point x="251" y="101"/>
      <point x="261" y="97"/>
      <point x="273" y="96" type="curve"/>
      <point x="283" y="97"/>
      <point x="293" y="105"/>
      <point x="304" y="118" type="curve" smooth="yes"/>
      <point x="315" y="131"/>
      <point x="324" y="155"/>
      <point x="333" y="189" type="curve"/>
      <point x="422" y="178" type="line"/>
      <point x="387" y="54"/>
      <point x="324" y="-8"/>
      <point x="260" y="-8" type="curve" smooth="yes"/>
      <point x="236" y="-8"/>
      <point x="216" y="5"/>
      <point x="195" y="17" type="curve" smooth="yes"/>
      <point x="175" y="29"/>
      <point x="156" y="42"/>
      <point x="137" y="42" type="curve" smooth="yes"/>
      <point x="118" y="42"/>
      <point x="102" y="29"/>
      <point x="90" y="17" type="curve" smooth="yes"/>
      <point x="82" y="9"/>
      <point x="76" y="1"/>
      <point x="71" y="-8" type="curve"/>
      <point x="8" y="31" type="line"/>
      <point x="29" y="64"/>
      <point x="55" y="91"/>
      <point x="84" y="113" type="curve" smooth="yes"/>
      <point x="100" y="125"/>
      <point x="116" y="132"/>
      <point x="133" y="135" type="curve"/>
      <point x="152" y="166"/>
      <point x="165" y="204"/>
      <point x="172" y="232" type="curve"/>
      <point x="177" y="257"/>
      <point x="178" y="286"/>
      <point x="175" y="317" type="curve"/>
      <point x="83" y="317" type="line"/>
      <point x="97" y="384" type="line"/>
      <point x="169" y="384" type="line"/>
      <point x="168" y="394" type="line" smooth="yes"/>
      <point x="163" y="458"/>
      <point x="157" y="520"/>
      <point x="166" y="561" type="curve" smooth="yes"/>
      <point x="174" y="602"/>
      <point x="192" y="648"/>
      <point x="223" y="683" type="curve" smooth="yes"/>
      <point x="254" y="718"/>
      <point x="292" y="742"/>
      <point x="348" y="743" type="curve" smooth="yes"/>
      <point x="415" y="744"/>
      <point x="449" y="719"/>
      <point x="466" y="683" type="curve" smooth="yes"/>
      <point x="482" y="646"/>
      <point x="480" y="596"/>
      <point x="469" y="547" type="curve"/>
    </contour>
  </outline>
</glyph>
<glyph name="yen" format="1">
  <advance width="352"/>
  <unicode hex="00A5"/>
  <outline>
    <contour>
      <point x="85" y="233" type="line"/>
      <point x="171" y="233" type="line"/>
      <point x="185" y="300" type="line"/>
      <point x="99" y="300" type="line"/>
      <point x="114" y="367" type="line"/>
      <point x="186" y="367" type="line"/>
      <point x="168" y="735" type="line"/>
      <point x="274" y="735" type="line"/>
      <point x="278" y="500" type="line"/>
      <point x="279" y="493" type="line"/>
      <point x="281" y="493" type="line"/>
      <point x="286" y="500" type="line"/>
      <point x="390" y="735" type="line"/>
      <point x="496" y="735" type="line"/>
      <point x="322" y="367" type="line"/>
      <point x="394" y="367" type="line"/>
      <point x="379" y="300" type="line"/>
      <point x="293" y="300" type="line"/>
      <point x="279" y="233" type="line"/>
      <point x="365" y="233" type="line"/>
      <point x="351" y="166" type="line"/>
      <point x="265" y="166" type="line"/>
      <point x="230" y="0" type="line"/>
      <point x="122" y="0" type="line"/>
      <point x="157" y="166" type="line"/>
      <point x="71" y="166" type="line"/>
    </contour>
  </outline>
</glyph>
<glyph name="copyright" format="1">
  <advance width="803"/>
  <unicode hex="00A9"/>
  <outline>
    <contour>
      <point x="127" y="471"/>
      <point x="187" y="565"/>
      <point x="270" y="633" type="curve" smooth="yes"/>
      <point x="354" y="701"/>
      <point x="454" y="743"/>
      <point x="558" y="743" type="curve" smooth="yes"/>
      <point x="662" y="743"/>
      <point x="748" y="701"/>
      <point x="801" y="633" type="curve" smooth="yes"/>
      <point x="856" y="565"/>
      <point x="878" y="471"/>
      <point x="855" y="367" type="curve" smooth="yes"/>
      <point x="832" y="263"/>
      <point x="772" y="170"/>
      <point x="688" y="102" type="curve" smooth="yes"/>
      <point x="605" y="34"/>
      <point x="503" y="-8"/>
      <point x="399" y="-8" type="curve" smooth="yes"/>
      <point x="295" y="-8"/>
      <point x="212" y="34"/>
      <point x="157" y="102" type="curve" smooth="yes"/>
      <point x="104" y="170"/>
      <point x="81" y="263"/>
      <point x="104" y="367" type="curve" smooth="yes"/>
    </contour>
    <contour>
      <point x="143" y="279"/>
      <point x="161" y="203"/>
      <point x="208" y="144" type="curve" smooth="yes"/>
      <point x="255" y="85"/>
      <point x="323" y="50"/>
      <point x="411" y="50" type="curve" smooth="yes"/>
      <point x="499" y="50"/>
      <point x="585" y="85"/>
      <point x="656" y="144" type="curve" smooth="yes"/>
      <point x="727" y="203"/>
      <point x="778" y="279"/>
      <point x="797" y="367" type="curve" smooth="yes"/>
      <point x="816" y="455"/>
      <point x="798" y="533"/>
      <point x="751" y="592" type="curve" smooth="yes"/>
      <point x="706" y="651"/>
      <point x="634" y="685"/>
      <point x="546" y="685" type="curve" smooth="yes"/>
      <point x="458" y="685"/>
      <point x="375" y="651"/>
      <point x="303" y="592" type="curve" smooth="yes"/>
      <point x="232" y="533"/>
      <point x="181" y="455"/>
      <point x="162" y="367" type="curve" smooth="yes"/>
    </contour>
    <contour>
      <point x="555" y="299" type="line"/>
      <point x="542" y="238" type="line"/>
      <point x="521" y="169"/>
      <point x="477" y="142"/>
      <point x="430" y="142" type="curve" smooth="yes"/>
      <point x="382" y="142"/>
      <point x="364" y="166"/>
      <point x="357" y="190" type="curve"/>
      <point x="352" y="205"/>
      <point x="352" y="221"/>
      <point x="356" y="238" type="curve" smooth="yes"/>
      <point x="411" y="497" type="line" smooth="yes"/>
      <point x="419" y="533"/>
      <point x="438" y="558"/>
      <point x="467" y="578" type="curve" smooth="yes"/>
      <point x="482" y="588"/>
      <point x="501" y="593"/>
      <point x="526" y="593" type="curve" smooth="yes"/>
      <point x="573" y="593"/>
      <point x="588" y="569"/>
      <point x="595" y="545" type="curve" smooth="yes"/>
      <point x="599" y="530"/>
      <point x="600" y="514"/>
      <point x="597" y="497" type="curve"/>
      <point x="584" y="436" type="line"/>
      <point x="517" y="436" type="line"/>
      <point x="530" y="497" type="line"/>
      <point x="533" y="508"/>
      <point x="532" y="516"/>
      <point x="527" y="523" type="curve"/>
      <point x="524" y="526"/>
      <point x="519" y="528"/>
      <point x="513" y="528" type="curve" smooth="yes"/>
      <point x="501" y="528"/>
      <point x="493" y="520"/>
      <point x="488" y="512" type="curve" smooth="yes"/>
      <point x="485" y="507"/>
      <point x="483" y="502"/>
      <point x="482" y="497" type="curve" smooth="yes"/>
      <point x="427" y="238" type="line"/>
      <point x="425" y="226"/>
      <point x="427" y="217"/>
      <point x="432" y="212" type="curve"/>
      <point x="434" y="209"/>
      <point x="438" y="207"/>
      <point x="444" y="207" type="curve" smooth="yes"/>
      <point x="457" y="207"/>
      <point x="465" y="214"/>
      <point x="470" y="222" type="curve" smooth="yes"/>
      <point x="473" y="227"/>
      <point x="475" y="233"/>
      <point x="475" y="238" type="curve"/>
      <point x="488" y="299" type="line"/>
    </contour>
  </outline>
</glyph>
<glyph name="registered" format="1">
  <advance width="803"/>
  <unicode hex="00AE"/>
  <outline>
    <contour>
      <point x="127" y="471"/>
      <point x="187" y="565"/>
      <point x="270" y="633" type="curve" smooth="yes"/>
      <point x="354" y="701"/>
      <point x="454" y="743"/>
      <point x="558" y="743" type="curve" smooth="yes"/>
      <point x="662" y="743"/>
      <point x="748" y="701"/>
      <point x="801" y="633" type="curve" smooth="yes"/>
      <point x="856" y="565"/>
      <point x="878" y="471"/>
      <point x="855" y="367" type="curve" smooth="yes"/>
      <point x="832" y="263"/>
      <point x="772" y="170"/>
      <point x="688" y="102" type="curve" smooth="yes"/>
      <point x="605" y="34"/>
      <point x="503" y="-8"/>
      <point x="399" y="-8" type="curve" smooth="yes"/>
      <point x="295" y="-8"/>
      <point x="212" y="34"/>
      <point x="157" y="102" type="curve" smooth="yes"/>
      <point x="104" y="170"/>
      <point x="81" y="263"/>
      <point x="104" y="367" type="curve" smooth="yes"/>
    </contour>
    <contour>
      <point x="143" y="279"/>
      <point x="161" y="203"/>
      <point x="208" y="144" type="curve" smooth="yes"/>
      <point x="255" y="85"/>
      <point x="323" y="50"/>
      <point x="411" y="50" type="curve" smooth="yes"/>
      <point x="499" y="50"/>
      <point x="585" y="85"/>
      <point x="656" y="144" type="curve" smooth="yes"/>
      <point x="727" y="203"/>
      <point x="778" y="279"/>
      <point x="797" y="367" type="curve" smooth="yes"/>
      <point x="816" y="455"/>
      <point x="798" y="533"/>
      <point x="751" y="592" type="curve" smooth="yes"/>
      <point x="706" y="651"/>
      <point x="634" y="685"/>
      <point x="546" y="685" type="curve" smooth="yes"/>
      <point x="458" y="685"/>
      <point x="375" y="651"/>
      <point x="303" y="592" type="curve" smooth="yes"/>
      <point x="232" y="533"/>
      <point x="181" y="455"/>
      <point x="162" y="367" type="curve" smooth="yes"/>
    </contour>
    <contour>
      <point x="524" y="582" type="line" smooth="yes"/>
      <point x="604" y="582"/>
      <point x="627" y="536"/>
      <point x="610" y="456" type="curve" smooth="yes"/>
      <point x="601" y="413"/>
      <point x="591" y="381"/>
      <point x="544" y="348" type="curve"/>
      <point x="555" y="153" type="line"/>
      <point x="481" y="153" type="line"/>
      <point x="473" y="331" type="line"/>
      <point x="446" y="331" type="line"/>
      <point x="408" y="153" type="line"/>
      <point x="337" y="153" type="line"/>
      <point x="428" y="582" type="line"/>
    </contour>
    <contour>
      <point x="486" y="519" type="line"/>
      <point x="459" y="393" type="line"/>
      <point x="481" y="393" type="line" smooth="yes"/>
      <point x="502" y="393"/>
      <point x="517" y="400"/>
      <point x="526" y="413" type="curve"/>
      <point x="535" y="425"/>
      <point x="539" y="440"/>
      <point x="542" y="455" type="curve" smooth="yes"/>
      <point x="545" y="470"/>
      <point x="548" y="486"/>
      <point x="544" y="498" type="curve"/>
      <point x="541" y="510"/>
      <point x="529" y="519"/>
      <point x="508" y="519" type="curve" smooth="yes"/>
    </contour>
  </outline>
</glyph>
<glyph name="macron" format="1">
  <advance width="500"/>
  <unicode hex="00AF"/>
  <outline>
    <contour>
      <point x="306" y="721" type="line"/>
      <point x="500" y="721" type="line"/>
      <point x="483" y="642" type="line"/>
      <point x="289" y="642" type="line"/>
    </contour>
    <contour>
      <point x="394.5" y="547" type="move" name="_top"/>
    </contour>
  </outline>
</glyph>
<glyph name="periodcentered" format="1">
  <advance width="105"/>
  <unicode hex="00B7"/>
  <outline>
    <contour>
      <point x="90" y="428" type="line"/>
      <point x="195" y="428" type="line"/>
      <point x="172" y="317" type="line"/>
      <point x="67" y="317" type="line"/>
    </contour>
  </outline>
</glyph>
<glyph name="questiondown" format="1">
  <advance width="315"/>
  <unicode hex="00BF"/>
  <outline>
    <contour>
      <point x="310" y="436" type="line"/>
      <point x="205" y="436" type="line"/>
      <point x="229" y="547" type="line"/>
      <point x="334" y="547" type="line"/>
    </contour>
    <contour>
      <point x="286" y="349" type="line"/>
      <point x="259" y="224" type="line" smooth="yes"/>
      <point x="248" y="171"/>
      <point x="229" y="128"/>
      <point x="209" y="92" type="curve" smooth="yes"/>
      <point x="188" y="56"/>
      <point x="165" y="28"/>
      <point x="145" y="3" type="curve" smooth="yes"/>
      <point x="126" y="-20"/>
      <point x="113" y="-39"/>
      <point x="107" y="-52" type="curve"/>
      <point x="106" y="-55"/>
      <point x="105" y="-59"/>
      <point x="105" y="-64" type="curve" smooth="yes"/>
      <point x="105" y="-73"/>
      <point x="107" y="-85"/>
      <point x="115" y="-92" type="curve"/>
      <point x="118" y="-96"/>
      <point x="124" y="-98"/>
      <point x="131" y="-98" type="curve" smooth="yes"/>
      <point x="148" y="-98"/>
      <point x="165" y="-86"/>
      <point x="180" y="-70" type="curve" smooth="yes"/>
      <point x="187" y="-63"/>
      <point x="193" y="-55"/>
      <point x="198" y="-47" type="curve" smooth="yes"/>
      <point x="203" y="-39"/>
      <point x="207" y="-32"/>
      <point x="210" y="-27" type="curve"/>
      <point x="288" y="-68" type="line"/>
      <point x="277" y="-84"/>
      <point x="257" y="-115"/>
      <point x="226" y="-142" type="curve" smooth="yes"/>
      <point x="195" y="-170"/>
      <point x="153" y="-193"/>
      <point x="109" y="-192" type="curve" smooth="yes"/>
      <point x="53" y="-191"/>
      <point x="25" y="-166"/>
      <point x="14" y="-135" type="curve"/>
      <point x="8" y="-120"/>
      <point x="5" y="-104"/>
      <point x="5" y="-89" type="curve" smooth="yes"/>
      <point x="5" y="-59"/>
      <point x="9" y="-29"/>
      <point x="32" y="4" type="curve" smooth="yes"/>
      <point x="43" y="20"/>
      <point x="56" y="37"/>
      <point x="70" y="55" type="curve" smooth="yes"/>
      <point x="74" y="60"/>
      <point x="78" y="66"/>
      <point x="83" y="71" type="curve" smooth="yes"/>
      <point x="88" y="76"/>
      <point x="92" y="82"/>
      <point x="97" y="88" type="curve" smooth="yes"/>
      <point x="116" y="111"/>
      <point x="134" y="139"/>
      <point x="149" y="172" type="curve" smooth="yes"/>
      <point x="156" y="188"/>
      <point x="162" y="205"/>
      <point x="166" y="224" type="curve" smooth="yes"/>
      <point x="193" y="349" type="line"/>
    </contour>
  </outline>
</glyph>
<glyph name="Agrave" format="1">
  <advance width="374"/>
  <unicode hex="00C0"/>
  <outline>
    <contour>
      <point x="363" y="890" type="line"/>
      <point x="396" y="800" type="line"/>
      <point x="318" y="800" type="line"/>
      <point x="258" y="890" type="line"/>
    </contour>
    <contour>
      <point x="10" y="0" type="line"/>
      <point x="277" y="735" type="line"/>
      <point x="409" y="735" type="line"/>
      <point x="364" y="0" type="line"/>
      <point x="259" y="0" type="line"/>
      <point x="270" y="150" type="line"/>
      <point x="166" y="150" type="line"/>
      <point x="115" y="0" type="line"/>
    </contour>
    <contour>
      <point x="298" y="496" type="line"/>
      <point x="299" y="515" type="line"/>
      <point x="293" y="515" type="line"/>
      <point x="286" y="496" type="line"/>
      <point x="206" y="264" type="line"/>
      <point x="280" y="264" type="line"/>
    </contour>
  </outline>
</glyph>
<glyph name="Adieresis" format="1">
  <advance width="374"/>
  <unicode hex="00C4"/>
  <outline>
    <contour>
      <point x="260" y="898" type="line"/>
      <point x="353" y="898" type="line"/>
      <point x="333" y="800" type="line"/>
      <point x="240" y="800" type="line"/>
    </contour>
    <contour>
      <point x="401" y="898" type="line"/>
      <point x="494" y="898" type="line"/>
      <point x="474" y="800" type="line"/>
      <point x="381" y="800" type="line"/>
    </contour>
    <contour>
      <point x="10" y="0" type="line"/>
      <point x="277" y="735" type="line"/>
      <point x="409" y="735" type="line"/>
      <point x="364" y="0" type="line"/>
      <point x="259" y="0" type="line"/>
      <point x="270" y="150" type="line"/>
      <point x="166" y="150" type="line"/>
      <point x="115" y="0" type="line"/>
    </contour>
    <contour>
      <point x="298" y="496" type="line"/>
      <point x="299" y="515" type="line"/>
      <point x="293" y="515" type="line"/>
      <point x="286" y="496" type="line"/>
      <point x="206" y="264" type="line"/>
      <point x="280" y="264" type="line"/>
    </contour>
  </outline>
</glyph>
<glyph name="Aring" format="1">
  <advance width="374"/>
  <unicode hex="00C5"/>
  <outline>
    <contour>
      <point x="304" y="901"/>
      <point x="344" y="930"/>
      <point x="385" y="930" type="curve" smooth="yes"/>
      <point x="426" y="930"/>
      <point x="453" y="901"/>
      <point x="444" y="860" type="curve" smooth="yes"/>
      <point x="436" y="819"/>
      <point x="396" y="790"/>
      <point x="355" y="790" type="curve" smooth="yes"/>
      <point x="314" y="790"/>
      <point x="287" y="819"/>
      <point x="295" y="860" type="curve" smooth="yes"/>
    </contour>
    <contour>
      <point x="329" y="841"/>
      <point x="344" y="825"/>
      <point x="363" y="825" type="curve" smooth="yes"/>
      <point x="382" y="825"/>
      <point x="403" y="841"/>
      <point x="407" y="860" type="curve" smooth="yes"/>
      <point x="411" y="879"/>
      <point x="397" y="895"/>
      <point x="378" y="895" type="curve" smooth="yes"/>
      <point x="359" y="895"/>
      <point x="337" y="879"/>
      <point x="333" y="860" type="curve" smooth="yes"/>
    </contour>
    <contour>
      <point x="10" y="0" type="line"/>
      <point x="277" y="735" type="line"/>
      <point x="409" y="735" type="line"/>
      <point x="364" y="0" type="line"/>
      <point x="259" y="0" type="line"/>
      <point x="270" y="150" type="line"/>
      <point x="166" y="150" type="line"/>
      <point x="115" y="0" type="line"/>
    </contour>
    <contour>
      <point x="298" y="496" type="line"/>
      <point x="299" y="515" type="line"/>
      <point x="293" y="515" type="line"/>
      <point x="286" y="496" type="line"/>
      <point x="206" y="264" type="line"/>
      <point x="280" y="264" type="line"/>
    </contour>
  </outline>
</glyph>
<glyph name="AE" format="1">
  <advance width="537"/>
  <unicode hex="00C6"/>
  <outline>
    <contour>
      <point x="301" y="150" type="line"/>
      <point x="190" y="150" type="line"/>
      <point x="115" y="0" type="line"/>
      <point x="8" y="0" type="line"/>
      <point x="369" y="735" type="line"/>
      <point x="673" y="735" type="line"/>
      <point x="649" y="624" type="line"/>
      <point x="510" y="624" type="line"/>
      <point x="469" y="431" type="line"/>
      <point x="569" y="431" type="line"/>
      <point x="544" y="313" type="line"/>
      <point x="444" y="313" type="line"/>
      <point x="401" y="111" type="line"/>
      <point x="540" y="111" type="line"/>
      <point x="517" y="0" type="line"/>
      <point x="270" y="0" type="line"/>
    </contour>
    <contour>
      <point x="248" y="264" type="line"/>
      <point x="326" y="264" type="line"/>
      <point x="379" y="515" type="line"/>
      <point x="374" y="515" type="line"/>
    </contour>
    <contour>
      <point x="269" y="735" type="move" name="top"/>
    </contour>
  </outline>
</glyph>
<glyph name="Egrave" format="1">
  <advance width="307"/>
  <unicode hex="00C8"/>
  <outline>
    <contour>
      <point x="348" y="890" type="line"/>
      <point x="381" y="800" type="line"/>
      <point x="303" y="800" type="line"/>
      <point x="243" y="890" type="line"/>
    </contour>
    <contour>
      <point x="196" y="735" type="line"/>
      <point x="443" y="735" type="line"/>
      <point x="419" y="624" type="line"/>
      <point x="280" y="624" type="line"/>
      <point x="239" y="431" type="line"/>
      <point x="339" y="431" type="line"/>
      <point x="314" y="313" type="line"/>
      <point x="214" y="313" type="line"/>
      <point x="171" y="111" type="line"/>
      <point x="310" y="111" type="line"/>
      <point x="287" y="0" type="line"/>
      <point x="40" y="0" type="line"/>
    </contour>
  </outline>
</glyph>
<glyph name="Edieresis" format="1">
  <advance width="307"/>
  <unicode hex="00CB"/>
  <outline>
    <contour>
      <point x="236" y="898" type="line"/>
      <point x="329" y="898" type="line"/>
      <point x="309" y="800" type="line"/>
      <point x="216" y="800" type="line"/>
    </contour>
    <contour>
      <point x="377" y="898" type="line"/>
      <point x="470" y="898" type="line"/>
      <point x="450" y="800" type="line"/>
      <point x="357" y="800" type="line"/>
    </contour>
    <contour>
      <point x="196" y="735" type="line"/>
      <point x="443" y="735" type="line"/>
      <point x="419" y="624" type="line"/>
      <point x="280" y="624" type="line"/>
      <point x="239" y="431" type="line"/>
      <point x="339" y="431" type="line"/>
      <point x="314" y="313" type="line"/>
      <point x="214" y="313" type="line"/>
      <point x="171" y="111" type="line"/>
      <point x="310" y="111" type="line"/>
      <point x="287" y="0" type="line"/>
      <point x="40" y="0" type="line"/>
    </contour>
  </outline>
</glyph>
<glyph name="Igrave" format="1">
  <advance width="196"/>
  <unicode hex="00CC"/>
  <outline>
    <contour>
      <point x="291" y="890" type="line"/>
      <point x="324" y="800" type="line"/>
      <point x="246" y="800" type="line"/>
      <point x="186" y="890" type="line"/>
    </contour>
    <contour>
      <point x="204" y="735" type="line"/>
      <point x="312" y="735" type="line"/>
      <point x="156" y="0" type="line"/>
      <point x="48" y="0" type="line"/>
    </contour>
  </outline>
</glyph>
<glyph name="Iacute" format="1">
  <advance width="196"/>
  <unicode hex="00CD"/>
  <outline>
    <contour>
      <point x="388" y="890" type="line"/>
      <point x="290" y="800" type="line"/>
      <point x="212" y="800" type="line"/>
      <point x="283" y="890" type="line"/>
    </contour>
    <contour>
      <point x="196" y="735" type="line"/>
      <point x="304" y="735" type="line"/>
      <point x="148" y="0" type="line"/>
      <point x="40" y="0" type="line"/>
    </contour>
  </outline>
</glyph>
<glyph name="Icircumflex" format="1">
  <advance width="181"/>
  <unicode hex="00CE"/>
  <outline>
    <contour>
      <point x="333" y="890" type="line"/>
      <point x="383" y="800" type="line"/>
      <point x="291" y="800" type="line"/>
      <point x="267" y="835" type="line"/>
      <point x="230" y="800" type="line"/>
      <point x="138" y="800" type="line"/>
      <point x="226" y="890" type="line"/>
    </contour>
    <contour>
      <point x="192" y="735" type="line"/>
      <point x="300" y="735" type="line"/>
      <point x="144" y="0" type="line"/>
      <point x="36" y="0" type="line"/>
    </contour>
  </outline>
</glyph>
<glyph name="Ntilde" format="1">
  <advance width="395"/>
  <unicode hex="00D1"/>
  <outline>
    <contour>
      <point x="286" y="871" type="line"/>
      <point x="297" y="878"/>
      <point x="309" y="883"/>
      <point x="322" y="887" type="curve" smooth="yes"/>
      <point x="328" y="889"/>
      <point x="335" y="890"/>
      <point x="343" y="890" type="curve" smooth="yes"/>
      <point x="357" y="890"/>
      <point x="371" y="887"/>
      <point x="385" y="882" type="curve"/>
      <point x="399" y="875"/>
      <point x="413" y="872"/>
      <point x="427" y="871" type="curve"/>
      <point x="442" y="871"/>
      <point x="453" y="875"/>
      <point x="465" y="879" type="curve" smooth="yes"/>
      <point x="468" y="880"/>
      <point x="471" y="882"/>
      <point x="474" y="883" type="curve" smooth="yes"/>
      <point x="477" y="884"/>
      <point x="480" y="886"/>
      <point x="483" y="887" type="curve"/>
      <point x="467" y="813" type="line"/>
      <point x="458" y="806"/>
      <point x="446" y="800"/>
      <point x="431" y="797" type="curve"/>
      <point x="424" y="795"/>
      <point x="417" y="794"/>
      <point x="410" y="794" type="curve" smooth="yes"/>
      <point x="395" y="794"/>
      <point x="381" y="797"/>
      <point x="369" y="803" type="curve"/>
      <point x="357" y="808"/>
      <point x="343" y="812"/>
      <point x="326" y="813" type="curve"/>
      <point x="311" y="813"/>
      <point x="299" y="809"/>
      <point x="288" y="805" type="curve" smooth="yes"/>
      <point x="285" y="804"/>
      <point x="282" y="802"/>
      <point x="279" y="801" type="curve" smooth="yes"/>
      <point x="276" y="800"/>
      <point x="273" y="798"/>
      <point x="270" y="797" type="curve"/>
    </contour>
    <contour>
      <point x="235" y="383" type="line"/>
      <point x="233" y="417" type="line"/>
      <point x="227" y="417" type="line"/>
      <point x="139" y="0" type="line"/>
      <point x="40" y="0" type="line"/>
      <point x="196" y="735" type="line"/>
      <point x="292" y="735" type="line"/>
      <point x="315" y="352" type="line"/>
      <point x="317" y="318" type="line"/>
      <point x="323" y="318" type="line"/>
      <point x="412" y="735" type="line"/>
      <point x="511" y="735" type="line"/>
      <point x="355" y="0" type="line"/>
      <point x="259" y="0" type="line"/>
    </contour>
  </outline>
</glyph>
<glyph name="Ograve" format="1">
  <advance width="354"/>
  <unicode hex="00D2"/>
  <outline>
    <contour>
      <point x="353" y="890" type="line"/>
      <point x="386" y="800" type="line"/>
      <point x="308" y="800" type="line"/>
      <point x="248" y="890" type="line"/>
    </contour>
    <contour>
      <point x="353" y="151" type="line"/>
      <point x="345" y="121"/>
      <point x="333" y="94"/>
      <point x="318" y="71" type="curve"/>
      <point x="303" y="51"/>
      <point x="286" y="32"/>
      <point x="263" y="17" type="curve"/>
      <point x="239" y="0"/>
      <point x="210" y="-8"/>
      <point x="175" y="-8" type="curve" smooth="yes"/>
      <point x="140" y="-8"/>
      <point x="114" y="0"/>
      <point x="96" y="17" type="curve" smooth="yes"/>
      <point x="79" y="32"/>
      <point x="70" y="51"/>
      <point x="66" y="71" type="curve"/>
      <point x="59" y="94"/>
      <point x="59" y="120"/>
      <point x="65" y="151" type="curve" smooth="yes"/>
      <point x="157" y="584" type="line" smooth="yes"/>
      <point x="164" y="613"/>
      <point x="175" y="639"/>
      <point x="191" y="663" type="curve"/>
      <point x="206" y="683"/>
      <point x="222" y="703"/>
      <point x="245" y="718" type="curve" smooth="yes"/>
      <point x="268" y="733"/>
      <point x="298" y="743"/>
      <point x="334" y="743" type="curve" smooth="yes"/>
      <point x="370" y="743"/>
      <point x="395" y="733"/>
      <point x="412" y="718" type="curve" smooth="yes"/>
      <point x="429" y="703"/>
      <point x="439" y="683"/>
      <point x="443" y="663" type="curve"/>
      <point x="450" y="641"/>
      <point x="450" y="615"/>
      <point x="445" y="584" type="curve"/>
    </contour>
    <contour>
      <point x="337" y="584" type="line" smooth="yes"/>
      <point x="341" y="604"/>
      <point x="339" y="619"/>
      <point x="332" y="630" type="curve"/>
      <point x="328" y="635"/>
      <point x="321" y="638"/>
      <point x="312" y="638" type="curve" smooth="yes"/>
      <point x="293" y="638"/>
      <point x="281" y="624"/>
      <point x="274" y="611" type="curve" smooth="yes"/>
      <point x="270" y="603"/>
      <point x="267" y="594"/>
      <point x="265" y="584" type="curve" smooth="yes"/>
      <point x="173" y="151" type="line"/>
      <point x="168" y="132"/>
      <point x="170" y="116"/>
      <point x="178" y="105" type="curve"/>
      <point x="182" y="100"/>
      <point x="188" y="97"/>
      <point x="197" y="97" type="curve" smooth="yes"/>
      <point x="216" y="97"/>
      <point x="228" y="109"/>
      <point x="235" y="124" type="curve" smooth="yes"/>
      <point x="238" y="130"/>
      <point x="242" y="139"/>
      <point x="245" y="151" type="curve"/>
    </contour>
  </outline>
</glyph>
<glyph name="Yacute" format="1">
  <advance width="344"/>
  <unicode hex="00DD"/>
  <outline>
    <contour>
      <point x="470" y="890" type="line"/>
      <point x="372" y="800" type="line"/>
      <point x="294" y="800" type="line"/>
      <point x="365" y="890" type="line"/>
    </contour>
    <contour>
      <point x="274" y="500" type="line"/>
      <point x="275" y="493" type="line"/>
      <point x="277" y="493" type="line"/>
      <point x="282" y="500" type="line"/>
      <point x="386" y="735" type="line"/>
      <point x="492" y="735" type="line"/>
      <point x="292" y="313" type="line"/>
      <point x="226" y="0" type="line"/>
      <point x="118" y="0" type="line"/>
      <point x="184" y="313" type="line"/>
      <point x="164" y="735" type="line"/>
      <point x="270" y="735" type="line"/>
    </contour>
  </outline>
</glyph>
<glyph name="Thorn" format="1">
  <advance width="354"/>
  <unicode hex="00DE"/>
  <outline>
    <contour>
      <point x="196" y="735" type="line"/>
      <point x="303" y="735" type="line"/>
      <point x="278" y="617" type="line"/>
      <point x="279" y="617" type="line" smooth="yes"/>
      <point x="326" y="617"/>
      <point x="370" y="606"/>
      <point x="399" y="571" type="curve" smooth="yes"/>
      <point x="428" y="536"/>
      <point x="441" y="481"/>
      <point x="422" y="397" type="curve" smooth="yes"/>
      <point x="403" y="313"/>
      <point x="368" y="259"/>
      <point x="325" y="224" type="curve" smooth="yes"/>
      <point x="282" y="189"/>
      <point x="232" y="176"/>
      <point x="185" y="176" type="curve"/>
      <point x="148" y="0" type="line"/>
      <point x="40" y="0" type="line"/>
    </contour>
    <contour>
      <point x="208" y="286" type="line"/>
      <point x="241" y="286"/>
      <point x="264" y="292"/>
      <point x="279" y="309" type="curve"/>
      <point x="295" y="325"/>
      <point x="303" y="352"/>
      <point x="312" y="393" type="curve" smooth="yes"/>
      <point x="321" y="434"/>
      <point x="324" y="462"/>
      <point x="316" y="481" type="curve"/>
      <point x="308" y="498"/>
      <point x="288" y="507"/>
      <point x="255" y="507" type="curve"/>
    </contour>
  </outline>
</glyph>
<glyph name="iacute" format="1">
  <advance width="181"/>
  <unicode hex="00ED"/>
  <outline>
    <contour>
      <point x="351" y="727" type="line"/>
      <point x="253" y="637" type="line"/>
      <point x="175" y="637" type="line"/>
      <point x="246" y="727" type="line"/>
    </contour>
    <contour>
      <point x="40" y="0" type="line"/>
      <point x="156" y="547" type="line"/>
      <point x="257" y="547" type="line"/>
      <point x="141" y="0" type="line"/>
    </contour>
  </outline>
</glyph>
<glyph name="ntilde" format="1">
  <advance width="337"/>
  <unicode hex="00F1"/>
  <outline>
    <contour>
      <point x="223" y="711" type="line"/>
      <point x="234" y="718"/>
      <point x="246" y="723"/>
      <point x="259" y="727" type="curve" smooth="yes"/>
      <point x="265" y="729"/>
      <point x="272" y="730"/>
      <point x="280" y="730" type="curve" smooth="yes"/>
      <point x="294" y="730"/>
      <point x="308" y="727"/>
      <point x="322" y="722" type="curve"/>
      <point x="336" y="715"/>
      <point x="350" y="712"/>
      <point x="364" y="711" type="curve"/>
      <point x="379" y="711"/>
      <point x="390" y="715"/>
      <point x="402" y="719" type="curve" smooth="yes"/>
      <point x="405" y="720"/>
      <point x="408" y="722"/>
      <point x="411" y="723" type="curve" smooth="yes"/>
      <point x="414" y="724"/>
      <point x="417" y="726"/>
      <point x="420" y="727" type="curve"/>
      <point x="404" y="653" type="line"/>
      <point x="395" y="646"/>
      <point x="383" y="640"/>
      <point x="368" y="637" type="curve"/>
      <point x="361" y="635"/>
      <point x="354" y="634"/>
      <point x="347" y="634" type="curve" smooth="yes"/>
      <point x="332" y="634"/>
      <point x="318" y="637"/>
      <point x="306" y="643" type="curve"/>
      <point x="294" y="648"/>
      <point x="280" y="652"/>
      <point x="263" y="653" type="curve"/>
      <point x="248" y="653"/>
      <point x="236" y="649"/>
      <point x="225" y="645" type="curve" smooth="yes"/>
      <point x="222" y="644"/>
      <point x="219" y="642"/>
      <point x="216" y="641" type="curve" smooth="yes"/>
      <point x="213" y="640"/>
      <point x="210" y="638"/>
      <point x="207" y="637" type="curve"/>
    </contour>
    <contour>
      <point x="141" y="0" type="line"/>
      <point x="40" y="0" type="line"/>
      <point x="156" y="547" type="line"/>
      <point x="257" y="547" type="line"/>
      <point x="247" y="501" type="line"/>
      <point x="249" y="502"/>
      <point x="254" y="505"/>
      <point x="261" y="512" type="curve"/>
      <point x="268" y="517"/>
      <point x="276" y="523"/>
      <point x="285" y="530" type="curve" smooth="yes"/>
      <point x="302" y="543"/>
      <point x="323" y="555"/>
      <point x="340" y="555" type="curve" smooth="yes"/>
      <point x="367" y="555"/>
      <point x="383" y="539"/>
      <point x="391" y="519" type="curve"/>
      <point x="398" y="498"/>
      <point x="399" y="471"/>
      <point x="394" y="448" type="curve" smooth="yes"/>
      <point x="299" y="0" type="line"/>
      <point x="198" y="0" type="line"/>
      <point x="290" y="433" type="line" smooth="yes"/>
      <point x="294" y="454"/>
      <point x="283" y="457"/>
      <point x="271" y="457" type="curve" smooth="yes"/>
      <point x="260" y="457"/>
      <point x="252" y="451"/>
      <point x="244" y="444" type="curve"/>
      <point x="242" y="442"/>
      <point x="240" y="440"/>
      <point x="238" y="438" type="curve" smooth="yes"/>
      <point x="236" y="436"/>
      <point x="234" y="434"/>
      <point x="232" y="431" type="curve"/>
    </contour>
  </outline>
</glyph>
<glyph name="otilde" format="1">
  <advance width="321"/>
  <unicode hex="00F5"/>
  <outline>
    <contour>
      <point x="215" y="711" type="line"/>
      <point x="226" y="718"/>
      <point x="238" y="723"/>
      <point x="251" y="727" type="curve" smooth="yes"/>
      <point x="257" y="729"/>
      <point x="264" y="730"/>
      <point x="272" y="730" type="curve" smooth="yes"/>
      <point x="286" y="730"/>
      <point x="300" y="727"/>
      <point x="314" y="722" type="curve"/>
      <point x="328" y="715"/>
      <point x="342" y="712"/>
      <point x="356" y="711" type="curve"/>
      <point x="371" y="711"/>
      <point x="382" y="715"/>
      <point x="394" y="719" type="curve" smooth="yes"/>
      <point x="397" y="720"/>
      <point x="400" y="722"/>
      <point x="403" y="723" type="curve" smooth="yes"/>
      <point x="406" y="724"/>
      <point x="409" y="726"/>
      <point x="412" y="727" type="curve"/>
      <point x="396" y="653" type="line"/>
      <point x="387" y="646"/>
      <point x="375" y="640"/>
      <point x="360" y="637" type="curve"/>
      <point x="353" y="635"/>
      <point x="346" y="634"/>
      <point x="339" y="634" type="curve" smooth="yes"/>
      <point x="324" y="634"/>
      <point x="310" y="637"/>
      <point x="298" y="643" type="curve"/>
      <point x="286" y="648"/>
      <point x="272" y="652"/>
      <point x="255" y="653" type="curve"/>
      <point x="240" y="653"/>
      <point x="228" y="649"/>
      <point x="217" y="645" type="curve" smooth="yes"/>
      <point x="214" y="644"/>
      <point x="211" y="642"/>
      <point x="208" y="641" type="curve" smooth="yes"/>
      <point x="205" y="640"/>
      <point x="202" y="638"/>
      <point x="199" y="637" type="curve"/>
    </contour>
    <contour>
      <point x="318" y="133" type="line"/>
      <point x="303" y="80"/>
      <point x="281" y="43"/>
      <point x="238" y="14" type="curve" smooth="yes"/>
      <point x="217" y="-1"/>
      <point x="191" y="-8"/>
      <point x="158" y="-8" type="curve" smooth="yes"/>
      <point x="126" y="-8"/>
      <point x="103" y="1"/>
      <point x="88" y="15" type="curve" smooth="yes"/>
      <point x="72" y="29"/>
      <point x="64" y="45"/>
      <point x="60" y="64" type="curve" smooth="yes"/>
      <point x="55" y="87"/>
      <point x="55" y="111"/>
      <point x="59" y="136" type="curve"/>
      <point x="118" y="411" type="line"/>
      <point x="133" y="464"/>
      <point x="155" y="502"/>
      <point x="198" y="533" type="curve"/>
      <point x="217" y="548"/>
      <point x="244" y="555"/>
      <point x="277" y="555" type="curve" smooth="yes"/>
      <point x="309" y="555"/>
      <point x="332" y="546"/>
      <point x="348" y="533" type="curve" smooth="yes"/>
      <point x="364" y="520"/>
      <point x="372" y="501"/>
      <point x="376" y="484" type="curve" smooth="yes"/>
      <point x="381" y="463"/>
      <point x="382" y="441"/>
      <point x="377" y="414" type="curve" smooth="yes"/>
    </contour>
    <contour>
      <point x="282" y="411" type="line" smooth="yes"/>
      <point x="287" y="432"/>
      <point x="286" y="448"/>
      <point x="279" y="459" type="curve"/>
      <point x="275" y="464"/>
      <point x="268" y="467"/>
      <point x="259" y="467" type="curve" smooth="yes"/>
      <point x="240" y="467"/>
      <point x="229" y="454"/>
      <point x="222" y="439" type="curve"/>
      <point x="217" y="431"/>
      <point x="214" y="422"/>
      <point x="213" y="411" type="curve"/>
      <point x="154" y="136" type="line"/>
      <point x="149" y="117"/>
      <point x="150" y="101"/>
      <point x="157" y="89" type="curve"/>
      <point x="161" y="84"/>
      <point x="168" y="81"/>
      <point x="177" y="81" type="curve" smooth="yes"/>
      <point x="196" y="81"/>
      <point x="207" y="93"/>
      <point x="214" y="108" type="curve"/>
      <point x="219" y="116"/>
      <point x="222" y="125"/>
      <point x="223" y="136" type="curve"/>
    </contour>
  </outline>
</glyph>
<glyph name="yacute" format="1">
  <advance width="310"/>
  <unicode hex="00FD"/>
  <outline>
    <contour>
      <point x="424" y="727" type="line"/>
      <point x="326" y="637" type="line"/>
      <point x="248" y="637" type="line"/>
      <point x="319" y="727" type="line"/>
    </contour>
    <contour>
      <point x="-6" y="-104" type="line"/>
      <point x="-5" y="-105"/>
      <point x="-3" y="-105"/>
      <point x="0" y="-105" type="curve"/>
      <point x="4" y="-106"/>
      <point x="28" y="-108"/>
      <point x="47" y="-96" type="curve" smooth="yes"/>
      <point x="65" y="-85"/>
      <point x="80" y="-68"/>
      <point x="91" y="-46" type="curve"/>
      <point x="96" y="-37"/>
      <point x="99" y="-27"/>
      <point x="101" y="-16" type="curve"/>
      <point x="128" y="547" type="line"/>
      <point x="227" y="547" type="line"/>
      <point x="195" y="211" type="line"/>
      <point x="191" y="183" type="line"/>
      <point x="195" y="183" type="line"/>
      <point x="203" y="211" type="line"/>
      <point x="315" y="547" type="line"/>
      <point x="414" y="547" type="line"/>
      <point x="192" y="-41" type="line" smooth="yes"/>
      <point x="177" y="-80"/>
      <point x="156" y="-118"/>
      <point x="125" y="-147" type="curve" smooth="yes"/>
      <point x="94" y="-176"/>
      <point x="59" y="-196"/>
      <point x="19" y="-196" type="curve" smooth="yes"/>
      <point x="7" y="-196" type="line" smooth="yes"/>
      <point x="-1" y="-196"/>
      <point x="-13" y="-195"/>
      <point x="-25" y="-194" type="curve"/>
    </contour>
  </outline>
</glyph>
<glyph name="abreve" format="1">
  <advance width="333"/>
  <unicode hex="0103"/>
  <outline>
    <contour>
      <point x="423" y="683" type="line"/>
      <point x="402" y="666"/>
      <point x="379" y="652"/>
      <point x="350" y="643" type="curve"/>
      <point x="337" y="638"/>
      <point x="321" y="636"/>
      <point x="303" y="636" type="curve" smooth="yes"/>
      <point x="268" y="636"/>
      <point x="243" y="647"/>
      <point x="227" y="659" type="curve" smooth="yes"/>
      <point x="217" y="666"/>
      <point x="209" y="674"/>
      <point x="203" y="683" type="curve"/>
      <point x="266" y="729" type="line"/>
      <point x="279" y="710"/>
      <point x="299" y="706"/>
      <point x="318" y="706" type="curve" smooth="yes"/>
      <point x="337" y="706"/>
      <point x="350" y="710"/>
      <point x="363" y="717" type="curve" smooth="yes"/>
      <point x="369" y="720"/>
      <point x="375" y="724"/>
      <point x="380" y="729" type="curve"/>
    </contour>
    <contour>
      <point x="281" y="417" type="line"/>
      <point x="284" y="426"/>
      <point x="286" y="439"/>
      <point x="285" y="450" type="curve"/>
      <point x="283" y="461"/>
      <point x="276" y="467"/>
      <point x="264" y="467" type="curve" smooth="yes"/>
      <point x="247" y="467"/>
      <point x="238" y="454"/>
      <point x="231" y="438" type="curve"/>
      <point x="228" y="430"/>
      <point x="226" y="421"/>
      <point x="223" y="412" type="curve"/>
      <point x="222" y="407"/>
      <point x="221" y="403"/>
      <point x="220" y="399" type="curve"/>
      <point x="219" y="394"/>
      <point x="219" y="390"/>
      <point x="218" y="386" type="curve"/>
      <point x="117" y="386" type="line"/>
      <point x="121" y="409" type="line"/>
      <point x="130" y="449"/>
      <point x="153" y="485"/>
      <point x="182" y="512" type="curve" smooth="yes"/>
      <point x="213" y="539"/>
      <point x="249" y="555"/>
      <point x="288" y="555" type="curve" smooth="yes"/>
      <point x="321" y="555"/>
      <point x="348" y="543"/>
      <point x="367" y="520" type="curve" smooth="yes"/>
      <point x="386" y="497"/>
      <point x="393" y="467"/>
      <point x="385" y="431" type="curve" smooth="yes"/>
      <point x="314" y="95" type="line" smooth="yes"/>
      <point x="303" y="46"/>
      <point x="302" y="24"/>
      <point x="301" y="0" type="curve"/>
      <point x="202" y="0" type="line"/>
      <point x="195" y="11"/>
      <point x="199" y="37"/>
      <point x="202" y="44" type="curve"/>
      <point x="195" y="44" type="line"/>
      <point x="188" y="35"/>
      <point x="176" y="22"/>
      <point x="160" y="11" type="curve" smooth="yes"/>
      <point x="144" y="0"/>
      <point x="123" y="-8"/>
      <point x="103" y="-8" type="curve" smooth="yes"/>
      <point x="90" y="-8"/>
      <point x="70" y="-3"/>
      <point x="58" y="17" type="curve"/>
      <point x="45" y="36"/>
      <point x="38" y="70"/>
      <point x="50" y="127" type="curve" smooth="yes"/>
      <point x="63" y="188"/>
      <point x="90" y="231"/>
      <point x="121" y="262" type="curve" smooth="yes"/>
      <point x="152" y="293"/>
      <point x="186" y="311"/>
      <point x="213" y="324" type="curve" smooth="yes"/>
      <point x="241" y="337"/>
      <point x="261" y="346"/>
      <point x="268" y="357" type="curve"/>
    </contour>
    <contour>
      <point x="249" y="264" type="line"/>
      <point x="194" y="243"/>
      <point x="164" y="194"/>
      <point x="153" y="142" type="curve"/>
      <point x="150" y="133"/>
      <point x="150" y="123"/>
      <point x="151" y="112" type="curve"/>
      <point x="154" y="100"/>
      <point x="158" y="91"/>
      <point x="170" y="91" type="curve" smooth="yes"/>
      <point x="193" y="91"/>
      <point x="215" y="105"/>
      <point x="219" y="124" type="curve" smooth="yes"/>
    </contour>
  </outline>
</glyph>
<glyph name="Ccaron" format="1">
  <advance width="346"/>
  <unicode hex="010C"/>
  <outline>
    <contour>
      <point x="296" y="825" type="line"/>
      <point x="246" y="915" type="line"/>
      <point x="338" y="915" type="line"/>
      <point x="361" y="880" type="line"/>
      <point x="399" y="915" type="line"/>
      <point x="491" y="915" type="line"/>
      <point x="403" y="825" type="line"/>
    </contour>
    <contour>
      <point x="374" y="252" type="line"/>
      <point x="353" y="151" type="line"/>
      <point x="345" y="121"/>
      <point x="333" y="94"/>
      <point x="318" y="71" type="curve"/>
      <point x="303" y="51"/>
      <point x="286" y="32"/>
      <point x="263" y="17" type="curve"/>
      <point x="239" y="0"/>
      <point x="210" y="-8"/>
      <point x="175" y="-8" type="curve" smooth="yes"/>
      <point x="140" y="-8"/>
      <point x="114" y="0"/>
      <point x="96" y="17" type="curve" smooth="yes"/>
      <point x="79" y="32"/>
      <point x="70" y="51"/>
      <point x="66" y="71" type="curve"/>
      <point x="59" y="94"/>
      <point x="59" y="120"/>
      <point x="65" y="151" type="curve" smooth="yes"/>
      <point x="157" y="584" type="line" smooth="yes"/>
      <point x="164" y="613"/>
      <point x="175" y="639"/>
      <point x="191" y="663" type="curve"/>
      <point x="206" y="683"/>
      <point x="222" y="703"/>
      <point x="245" y="718" type="curve" smooth="yes"/>
      <point x="268" y="733"/>
      <point x="298" y="743"/>
      <point x="334" y="743" type="curve" smooth="yes"/>
      <point x="370" y="743"/>
      <point x="395" y="733"/>
      <point x="412" y="718" type="curve" smooth="yes"/>
      <point x="429" y="703"/>
      <point x="439" y="683"/>
      <point x="443" y="663" type="curve"/>
      <point x="450" y="641"/>
      <point x="450" y="615"/>
      <point x="445" y="584" type="curve"/>
      <point x="423" y="483" type="line"/>
      <point x="322" y="483" type="line"/>
      <point x="344" y="584" type="line" smooth="yes"/>
      <point x="348" y="603"/>
      <point x="346" y="619"/>
      <point x="337" y="630" type="curve" smooth="yes"/>
      <point x="333" y="635"/>
      <point x="325" y="638"/>
      <point x="314" y="638" type="curve" smooth="yes"/>
      <point x="295" y="638"/>
      <point x="283" y="624"/>
      <point x="275" y="611" type="curve"/>
      <point x="272" y="604"/>
      <point x="268" y="595"/>
      <point x="265" y="584" type="curve"/>
      <point x="173" y="151" type="line"/>
      <point x="170" y="132"/>
      <point x="172" y="116"/>
      <point x="180" y="105" type="curve"/>
      <point x="184" y="100"/>
      <point x="190" y="97"/>
      <point x="199" y="97" type="curve" smooth="yes"/>
      <point x="222" y="97"/>
      <point x="234" y="109"/>
      <point x="242" y="124" type="curve" smooth="yes"/>
      <point x="245" y="130"/>
      <point x="249" y="139"/>
      <point x="252" y="151" type="curve"/>
      <point x="273" y="252" type="line"/>
    </contour>
  </outline>
</glyph>
<glyph name="dcaron" format="1">
  <advance width="486"/>
  <unicode hex="010F"/>
  <outline>
    <contour>
      <point x="295" y="0" type="line"/>
      <point x="194" y="0" type="line"/>
      <point x="201" y="36" type="line"/>
      <point x="181" y="20"/>
      <point x="163" y="8"/>
      <point x="142" y="-1" type="curve"/>
      <point x="132" y="-6"/>
      <point x="122" y="-8"/>
      <point x="112" y="-8" type="curve" smooth="yes"/>
      <point x="84" y="-8"/>
      <point x="68" y="8"/>
      <point x="61" y="29" type="curve"/>
      <point x="52" y="49"/>
      <point x="52" y="76"/>
      <point x="57" y="99" type="curve" smooth="yes"/>
      <point x="131" y="448" type="line" smooth="yes"/>
      <point x="136" y="471"/>
      <point x="146" y="498"/>
      <point x="165" y="519" type="curve"/>
      <point x="181" y="539"/>
      <point x="203" y="555"/>
      <point x="231" y="555" type="curve" smooth="yes"/>
      <point x="250" y="555"/>
      <point x="268" y="544"/>
      <point x="281" y="533" type="curve"/>
      <point x="288" y="526"/>
      <point x="295" y="519"/>
      <point x="302" y="511" type="curve"/>
      <point x="350" y="735" type="line"/>
      <point x="451" y="735" type="line"/>
    </contour>
    <contour>
      <point x="594" y="624" type="line"/>
      <point x="512" y="494" type="line"/>
      <point x="462" y="494" type="line"/>
      <point x="524" y="624" type="line"/>
      <point x="489" y="624" type="line"/>
      <point x="513" y="735" type="line"/>
      <point x="618" y="735" type="line"/>
    </contour>
    <contour>
      <point x="284" y="427" type="line"/>
      <point x="288" y="443"/>
      <point x="276" y="460"/>
      <point x="261" y="460" type="curve" smooth="yes"/>
      <point x="246" y="460"/>
      <point x="231" y="446"/>
      <point x="227" y="427" type="curve" smooth="yes"/>
      <point x="162" y="120" type="line" smooth="yes"/>
      <point x="158" y="101"/>
      <point x="167" y="87"/>
      <point x="182" y="87" type="curve" smooth="yes"/>
      <point x="197" y="87"/>
      <point x="215" y="101"/>
      <point x="219" y="120" type="curve" smooth="yes"/>
    </contour>
  </outline>
</glyph>
<glyph name="Dcroat" format="1">
  <advance width="372"/>
  <unicode hex="0110"/>
  <outline>
    <contour>
      <point x="281" y="735" type="line" smooth="yes"/>
      <point x="381" y="735"/>
      <point x="429" y="715"/>
      <point x="448" y="659" type="curve"/>
      <point x="464" y="603"/>
      <point x="449" y="512"/>
      <point x="418" y="367" type="curve" smooth="yes"/>
      <point x="387" y="223"/>
      <point x="364" y="132"/>
      <point x="324" y="76" type="curve" smooth="yes"/>
      <point x="283" y="20"/>
      <point x="225" y="0"/>
      <point x="125" y="0" type="curve" smooth="yes"/>
      <point x="40" y="0" type="line"/>
      <point x="110" y="331" type="line"/>
      <point x="51" y="331" type="line"/>
      <point x="68" y="410" type="line"/>
      <point x="127" y="410" type="line"/>
      <point x="196" y="735" type="line"/>
    </contour>
    <contour>
      <point x="170" y="108" type="line"/>
      <point x="207" y="108"/>
      <point x="229" y="112"/>
      <point x="248" y="148" type="curve" smooth="yes"/>
      <point x="265" y="181"/>
      <point x="279" y="240"/>
      <point x="289" y="288" type="curve" smooth="yes"/>
      <point x="294" y="311"/>
      <point x="299" y="338"/>
      <point x="306" y="368" type="curve" smooth="yes"/>
      <point x="312" y="398"/>
      <point x="318" y="425"/>
      <point x="323" y="449" type="curve" smooth="yes"/>
      <point x="333" y="496"/>
      <point x="345" y="552"/>
      <point x="341" y="588" type="curve" smooth="yes"/>
      <point x="338" y="623"/>
      <point x="318" y="627"/>
      <point x="281" y="627" type="curve"/>
      <point x="235" y="410" type="line"/>
      <point x="262" y="410" type="line"/>
      <point x="245" y="331" type="line"/>
      <point x="218" y="331" type="line"/>
    </contour>
  </outline>
</glyph>
<glyph name="Ebreve" format="1">
  <advance width="307"/>
  <unicode hex="0114"/>
  <outline>
    <contour>
      <point x="450" y="871" type="line"/>
      <point x="429" y="854"/>
      <point x="406" y="840"/>
      <point x="377" y="831" type="curve"/>
      <point x="364" y="826"/>
      <point x="348" y="824"/>
      <point x="330" y="824" type="curve" smooth="yes"/>
      <point x="295" y="824"/>
      <point x="270" y="835"/>
      <point x="254" y="847" type="curve" smooth="yes"/>
      <point x="244" y="854"/>
      <point x="236" y="862"/>
      <point x="230" y="871" type="curve"/>
      <point x="293" y="917" type="line"/>
      <point x="306" y="898"/>
      <point x="326" y="894"/>
      <point x="345" y="894" type="curve" smooth="yes"/>
      <point x="364" y="894"/>
      <point x="377" y="898"/>
      <point x="390" y="905" type="curve" smooth="yes"/>
      <point x="396" y="908"/>
      <point x="402" y="912"/>
      <point x="407" y="917" type="curve"/>
    </contour>
    <contour>
      <point x="196" y="735" type="line"/>
      <point x="443" y="735" type="line"/>
      <point x="419" y="624" type="line"/>
      <point x="280" y="624" type="line"/>
      <point x="239" y="431" type="line"/>
      <point x="339" y="431" type="line"/>
      <point x="314" y="313" type="line"/>
      <point x="214" y="313" type="line"/>
      <point x="171" y="111" type="line"/>
      <point x="310" y="111" type="line"/>
      <point x="287" y="0" type="line"/>
      <point x="40" y="0" type="line"/>
    </contour>
  </outline>
</glyph>
<glyph name="eogonek" format="1">
  <advance width="322"/>
  <unicode hex="0119"/>
  <outline>
    <contour>
      <point x="248" y="0" type="line"/>
      <point x="227" y="-15"/>
      <point x="211" y="-31"/>
      <point x="199" y="-50" type="curve" smooth="yes"/>
      <point x="192" y="-61"/>
      <point x="187" y="-72"/>
      <point x="185" y="-83" type="curve" smooth="yes"/>
      <point x="182" y="-98"/>
      <point x="187" y="-106"/>
      <point x="195" y="-112" type="curve" smooth="yes"/>
      <point x="203" y="-118"/>
      <point x="215" y="-121"/>
      <point x="227" y="-121" type="curve" smooth="yes"/>
      <point x="244" y="-121"/>
      <point x="258" y="-117"/>
      <point x="271" y="-112" type="curve"/>
      <point x="248" y="-179" type="line"/>
      <point x="225" y="-186"/>
      <point x="213" y="-188"/>
      <point x="196" y="-188" type="curve" smooth="yes"/>
      <point x="131" y="-188"/>
      <point x="101" y="-148"/>
      <point x="112" y="-103" type="curve" smooth="yes"/>
      <point x="119" y="-75"/>
      <point x="139" y="-50"/>
      <point x="160" y="-31" type="curve"/>
      <point x="169" y="-22"/>
      <point x="179" y="-14"/>
      <point x="190" y="-6" type="curve"/>
      <point x="181" y="-7"/>
      <point x="171" y="-8"/>
      <point x="160" y="-8" type="curve" smooth="yes"/>
      <point x="95" y="-8"/>
      <point x="69" y="28"/>
      <point x="61" y="64" type="curve" smooth="yes"/>
      <point x="56" y="87"/>
      <point x="56" y="111"/>
      <point x="60" y="136" type="curve"/>
      <point x="119" y="411" type="line"/>
      <point x="134" y="464"/>
      <point x="158" y="502"/>
      <point x="201" y="533" type="curve"/>
      <point x="220" y="548"/>
      <point x="247" y="555"/>
      <point x="280" y="555" type="curve" smooth="yes"/>
      <point x="312" y="555"/>
      <point x="335" y="546"/>
      <point x="351" y="533" type="curve" smooth="yes"/>
      <point x="367" y="520"/>
      <point x="375" y="501"/>
      <point x="379" y="484" type="curve" smooth="yes"/>
      <point x="384" y="463"/>
      <point x="385" y="441"/>
      <point x="380" y="414" type="curve" smooth="yes"/>
      <point x="347" y="255" type="line"/>
      <point x="180" y="255" type="line"/>
      <point x="154" y="136" type="line"/>
      <point x="151" y="117"/>
      <point x="153" y="101"/>
      <point x="160" y="89" type="curve"/>
      <point x="164" y="84"/>
      <point x="171" y="81"/>
      <point x="180" y="81" type="curve" smooth="yes"/>
      <point x="199" y="81"/>
      <point x="210" y="93"/>
      <point x="217" y="108" type="curve"/>
      <point x="222" y="115"/>
      <point x="225" y="125"/>
      <point x="227" y="136" type="curve" smooth="yes"/>
      <point x="240" y="196" type="line"/>
      <point x="334" y="196" type="line"/>
      <point x="321" y="133" type="line"/>
      <point x="306" y="80"/>
      <point x="283" y="43"/>
      <point x="240" y="14" type="curve"/>
      <point x="231" y="7"/>
      <point x="223" y="3"/>
      <point x="214" y="0" type="curve"/>
    </contour>
    <contour>
      <point x="196" y="334" type="line"/>
      <point x="269" y="334" type="line"/>
      <point x="286" y="411" type="line" smooth="yes"/>
      <point x="290" y="432"/>
      <point x="290" y="447"/>
      <point x="282" y="459" type="curve"/>
      <point x="278" y="464"/>
      <point x="271" y="467"/>
      <point x="262" y="467" type="curve" smooth="yes"/>
      <point x="243" y="467"/>
      <point x="232" y="454"/>
      <point x="224" y="439" type="curve" smooth="yes"/>
      <point x="220" y="432"/>
      <point x="216" y="423"/>
      <point x="213" y="411" type="curve" smooth="yes"/>
    </contour>
  </outline>
</glyph>
<glyph name="Ecaron" format="1">
  <advance width="307"/>
  <unicode hex="011A"/>
  <outline>
    <contour>
      <point x="276" y="825" type="line"/>
      <point x="226" y="915" type="line"/>
      <point x="318" y="915" type="line"/>
      <point x="341" y="880" type="line"/>
      <point x="379" y="915" type="line"/>
      <point x="471" y="915" type="line"/>
      <point x="383" y="825" type="line"/>
    </contour>
    <contour>
      <point x="196" y="735" type="line"/>
      <point x="443" y="735" type="line"/>
      <point x="419" y="624" type="line"/>
      <point x="280" y="624" type="line"/>
      <point x="239" y="431" type="line"/>
      <point x="339" y="431" type="line"/>
      <point x="314" y="313" type="line"/>
      <point x="214" y="313" type="line"/>
      <point x="171" y="111" type="line"/>
      <point x="310" y="111" type="line"/>
      <point x="287" y="0" type="line"/>
      <point x="40" y="0" type="line"/>
    </contour>
  </outline>
</glyph>
<glyph name="Hcircumflex" format="1">
  <advance width="380"/>
  <unicode hex="0124"/>
  <outline>
    <contour>
      <point x="439" y="915" type="line"/>
      <point x="489" y="825" type="line"/>
      <point x="397" y="825" type="line"/>
      <point x="373" y="860" type="line"/>
      <point x="336" y="825" type="line"/>
      <point x="244" y="825" type="line"/>
      <point x="332" y="915" type="line"/>
    </contour>
    <contour>
      <point x="300" y="320" type="line"/>
      <point x="216" y="320" type="line"/>
      <point x="148" y="0" type="line"/>
      <point x="40" y="0" type="line"/>
      <point x="196" y="735" type="line"/>
      <point x="304" y="735" type="line"/>
      <point x="239" y="431" type="line"/>
      <point x="323" y="431" type="line"/>
      <point x="388" y="735" type="line"/>
      <point x="496" y="735" type="line"/>
      <point x="340" y="0" type="line"/>
      <point x="232" y="0" type="line"/>
    </contour>
  </outline>
</glyph>
<glyph name="Hbar" format="1">
  <advance width="380"/>
  <unicode hex="0126"/>
  <outline>
    <contour>
      <point x="496" y="548" type="line"/>
      <point x="456" y="548" type="line"/>
      <point x="340" y="0" type="line"/>
      <point x="232" y="0" type="line"/>
      <point x="300" y="320" type="line"/>
      <point x="216" y="320" type="line"/>
      <point x="148" y="0" type="line"/>
      <point x="40" y="0" type="line"/>
      <point x="156" y="548" type="line"/>
      <point x="117" y="548" type="line"/>
      <point x="134" y="627" type="line"/>
      <point x="173" y="627" type="line"/>
      <point x="196" y="735" type="line"/>
      <point x="304" y="735" type="line"/>
      <point x="281" y="627" type="line"/>
      <point x="365" y="627" type="line"/>
      <point x="388" y="735" type="line"/>
      <point x="496" y="735" type="line"/>
      <point x="473" y="627" type="line"/>
      <point x="513" y="627" type="line"/>
    </contour>
    <contour>
      <point x="348" y="548" type="line"/>
      <point x="264" y="548" type="line"/>
      <point x="239" y="431" type="line"/>
      <point x="323" y="431" type="line"/>
    </contour>
  </outline>
</glyph>
<glyph name="Imacron" format="1">
  <advance width="188"/>
  <unicode hex="012A"/>
  <outline>
    <contour>
      <point x="191" y="909" type="line"/>
      <point x="385" y="909" type="line"/>
      <point x="368" y="830" type="line"/>
      <point x="174" y="830" type="line"/>
    </contour>
    <contour>
      <point x="196" y="735" type="line"/>
      <point x="304" y="735" type="line"/>
      <point x="148" y="0" type="line"/>
      <point x="40" y="0" type="line"/>
    </contour>
  </outline>
</glyph>
<glyph name="imacron" format="1">
  <advance width="181"/>
  <unicode hex="012B"/>
  <outline>
    <contour>
      <point x="148" y="721" type="line"/>
      <point x="342" y="721" type="line"/>
      <point x="325" y="642" type="line"/>
      <point x="131" y="642" type="line"/>
    </contour>
    <contour>
      <point x="40" y="0" type="line"/>
      <point x="156" y="547" type="line"/>
      <point x="257" y="547" type="line"/>
      <point x="141" y="0" type="line"/>
    </contour>
  </outline>
</glyph>
<glyph name="Ibreve" format="1">
  <advance width="188"/>
  <unicode hex="012C"/>
  <outline>
    <contour>
      <point x="390" y="871" type="line"/>
      <point x="369" y="854"/>
      <point x="346" y="840"/>
      <point x="317" y="831" type="curve"/>
      <point x="304" y="826"/>
      <point x="288" y="824"/>
      <point x="270" y="824" type="curve" smooth="yes"/>
      <point x="235" y="824"/>
      <point x="210" y="835"/>
      <point x="194" y="847" type="curve" smooth="yes"/>
      <point x="184" y="854"/>
      <point x="176" y="862"/>
      <point x="170" y="871" type="curve"/>
      <point x="233" y="917" type="line"/>
      <point x="246" y="898"/>
      <point x="266" y="894"/>
      <point x="285" y="894" type="curve" smooth="yes"/>
      <point x="304" y="894"/>
      <point x="317" y="898"/>
      <point x="330" y="905" type="curve" smooth="yes"/>
      <point x="336" y="908"/>
      <point x="342" y="912"/>
      <point x="347" y="917" type="curve"/>
    </contour>
    <contour>
      <point x="196" y="735" type="line"/>
      <point x="304" y="735" type="line"/>
      <point x="148" y="0" type="line"/>
      <point x="40" y="0" type="line"/>
    </contour>
  </outline>
</glyph>
<glyph name="ibreve" format="1">
  <advance width="181"/>
  <unicode hex="012D"/>
  <outline>
    <contour>
      <point x="347" y="683" type="line"/>
      <point x="326" y="666"/>
      <point x="303" y="652"/>
      <point x="274" y="643" type="curve"/>
      <point x="261" y="638"/>
      <point x="245" y="636"/>
      <point x="227" y="636" type="curve" smooth="yes"/>
      <point x="192" y="636"/>
      <point x="167" y="647"/>
      <point x="151" y="659" type="curve" smooth="yes"/>
      <point x="141" y="666"/>
      <point x="133" y="674"/>
      <point x="127" y="683" type="curve"/>
      <point x="190" y="729" type="line"/>
      <point x="203" y="710"/>
      <point x="223" y="706"/>
      <point x="242" y="706" type="curve" smooth="yes"/>
      <point x="261" y="706"/>
      <point x="274" y="710"/>
      <point x="287" y="717" type="curve" smooth="yes"/>
      <point x="293" y="720"/>
      <point x="299" y="724"/>
      <point x="304" y="729" type="curve"/>
    </contour>
    <contour>
      <point x="40" y="0" type="line"/>
      <point x="156" y="547" type="line"/>
      <point x="257" y="547" type="line"/>
      <point x="141" y="0" type="line"/>
    </contour>
  </outline>
</glyph>
<glyph name="Iogonek" format="1">
  <advance width="188"/>
  <unicode hex="012E"/>
  <outline>
    <contour>
      <point x="102" y="0" type="line"/>
      <point x="81" y="-15"/>
      <point x="65" y="-31"/>
      <point x="53" y="-50" type="curve" smooth="yes"/>
      <point x="46" y="-61"/>
      <point x="41" y="-72"/>
      <point x="39" y="-83" type="curve" smooth="yes"/>
      <point x="36" y="-98"/>
      <point x="41" y="-106"/>
      <point x="49" y="-112" type="curve" smooth="yes"/>
      <point x="57" y="-118"/>
      <point x="69" y="-121"/>
      <point x="81" y="-121" type="curve" smooth="yes"/>
      <point x="98" y="-121"/>
      <point x="112" y="-117"/>
      <point x="125" y="-112" type="curve"/>
      <point x="102" y="-179" type="line"/>
      <point x="79" y="-186"/>
      <point x="67" y="-188"/>
      <point x="50" y="-188" type="curve" smooth="yes"/>
      <point x="-14" y="-188"/>
      <point x="-44" y="-148"/>
      <point x="-33" y="-103" type="curve" smooth="yes"/>
      <point x="-26" y="-75"/>
      <point x="-6" y="-50"/>
      <point x="14" y="-31" type="curve" smooth="yes"/>
      <point x="25" y="-20"/>
      <point x="39" y="-9"/>
      <point x="54" y="0" type="curve"/>
      <point x="40" y="0" type="line"/>
      <point x="196" y="735" type="line"/>
      <point x="304" y="735" type="line"/>
      <point x="148" y="0" type="line"/>
    </contour>
  </outline>
</glyph>
<glyph name="dotlessi" format="1">
  <advance width="181"/>
  <unicode hex="0131"/>
  <outline>
    <contour>
      <point x="40" y="0" type="line"/>
      <point x="156" y="547" type="line"/>
      <point x="257" y="547" type="line"/>
      <point x="141" y="0" type="line"/>
    </contour>
    <contour>
      <point x="163" y="10" type="move" name="ogonek"/>
    </contour>
    <contour>
      <point x="91" y="547" type="move" name="top"/>
    </contour>
  </outline>
</glyph>
<glyph name="Lacute" format="1">
  <advance width="295"/>
  <unicode hex="0139"/>
  <outline>
    <contour>
      <point x="421" y="915" type="line"/>
      <point x="323" y="825" type="line"/>
      <point x="245" y="825" type="line"/>
      <point x="316" y="915" type="line"/>
    </contour>
    <contour>
      <point x="196" y="735" type="line"/>
      <point x="304" y="735" type="line"/>
      <point x="169" y="100" type="line"/>
      <point x="312" y="100" type="line"/>
      <point x="291" y="0" type="line"/>
      <point x="40" y="0" type="line"/>
    </contour>
  </outline>
</glyph>
<glyph name="Lcommaaccent" format="1">
  <advance width="295"/>
  <unicode hex="013B"/>
  <outline>
    <contour>
      <point x="196" y="735" type="line"/>
      <point x="304" y="735" type="line"/>
      <point x="169" y="100" type="line"/>
      <point x="312" y="100" type="line"/>
      <point x="291" y="0" type="line"/>
      <point x="40" y="0" type="line"/>
    </contour>
    <contour>
      <point x="188" y="-123" type="line"/>
      <point x="153" y="-188" type="line"/>
      <point x="102" y="-188" type="line"/>
      <point x="135" y="-123" type="line"/>
      <point x="104" y="-123" type="line"/>
      <point x="119" y="-54" type="line"/>
      <point x="203" y="-54" type="line"/>
    </contour>
  </outline>
</glyph>
<glyph name="lcommaaccent" format="1">
  <advance width="181"/>
  <unicode hex="013C"/>
  <outline>
    <contour>
      <point x="40" y="0" type="line"/>
      <point x="196" y="735" type="line"/>
      <point x="297" y="735" type="line"/>
      <point x="141" y="0" type="line"/>
    </contour>
    <contour>
      <point x="110" y="-116" type="line"/>
      <point x="74" y="-181" type="line"/>
      <point x="23" y="-181" type="line"/>
      <point x="57" y="-116" type="line"/>
      <point x="26" y="-116" type="line"/>
      <point x="41" y="-47" type="line"/>
      <point x="125" y="-47" type="line"/>
    </contour>
  </outline>
</glyph>
<glyph name="lcaron" format="1">
  <advance width="332"/>
  <unicode hex="013E"/>
  <outline>
    <contour>
      <point x="40" y="0" type="line"/>
      <point x="196" y="735" type="line"/>
      <point x="297" y="735" type="line"/>
      <point x="141" y="0" type="line"/>
    </contour>
    <contour>
      <point x="440" y="624" type="line"/>
      <point x="358" y="494" type="line"/>
      <point x="308" y="494" type="line"/>
      <point x="370" y="624" type="line"/>
      <point x="335" y="624" type="line"/>
      <point x="359" y="735" type="line"/>
      <point x="464" y="735" type="line"/>
    </contour>
  </outline>
</glyph>
<glyph name="Lslash" format="1">
  <advance width="307"/>
  <unicode hex="0141"/>
  <outline>
    <contour>
      <point x="101" y="382" type="line"/>
      <point x="138" y="407" type="line"/>
      <point x="208" y="735" type="line"/>
      <point x="316" y="735" type="line"/>
      <point x="264" y="491" type="line"/>
      <point x="333" y="537" type="line"/>
      <point x="310" y="429" type="line"/>
      <point x="241" y="383" type="line"/>
      <point x="181" y="100" type="line"/>
      <point x="324" y="100" type="line"/>
      <point x="303" y="0" type="line"/>
      <point x="52" y="0" type="line"/>
      <point x="115" y="299" type="line"/>
      <point x="78" y="274" type="line"/>
    </contour>
  </outline>
</glyph>
<glyph name="Nacute" format="1">
  <advance width="395"/>
  <unicode hex="0143"/>
  <outline>
    <contour>
      <point x="471" y="915" type="line"/>
      <point x="373" y="825" type="line"/>
      <point x="295" y="825" type="line"/>
      <point x="366" y="915" type="line"/>
    </contour>
    <contour>
      <point x="235" y="383" type="line"/>
      <point x="233" y="417" type="line"/>
      <point x="227" y="417" type="line"/>
      <point x="139" y="0" type="line"/>
      <point x="40" y="0" type="line"/>
      <point x="196" y="735" type="line"/>
      <point x="292" y="735" type="line"/>
      <point x="315" y="352" type="line"/>
      <point x="317" y="318" type="line"/>
      <point x="323" y="318" type="line"/>
      <point x="412" y="735" type="line"/>
      <point x="511" y="735" type="line"/>
      <point x="355" y="0" type="line"/>
      <point x="259" y="0" type="line"/>
    </contour>
  </outline>
</glyph>
<glyph name="nacute" format="1">
  <advance width="337"/>
  <unicode hex="0144"/>
  <outline>
    <contour>
      <point x="402" y="727" type="line"/>
      <point x="304" y="637" type="line"/>
      <point x="226" y="637" type="line"/>
      <point x="297" y="727" type="line"/>
    </contour>
    <contour>
      <point x="141" y="0" type="line"/>
      <point x="40" y="0" type="line"/>
      <point x="156" y="547" type="line"/>
      <point x="257" y="547" type="line"/>
      <point x="247" y="501" type="line"/>
      <point x="249" y="502"/>
      <point x="254" y="505"/>
      <point x="261" y="512" type="curve"/>
      <point x="268" y="517"/>
      <point x="276" y="523"/>
      <point x="285" y="530" type="curve" smooth="yes"/>
      <point x="302" y="543"/>
      <point x="323" y="555"/>
      <point x="340" y="555" type="curve" smooth="yes"/>
      <point x="367" y="555"/>
      <point x="383" y="539"/>
      <point x="391" y="519" type="curve"/>
      <point x="398" y="498"/>
      <point x="399" y="471"/>
      <point x="394" y="448" type="curve" smooth="yes"/>
      <point x="299" y="0" type="line"/>
      <point x="198" y="0" type="line"/>
      <point x="290" y="433" type="line" smooth="yes"/>
      <point x="294" y="454"/>
      <point x="283" y="457"/>
      <point x="271" y="457" type="curve" smooth="yes"/>
      <point x="260" y="457"/>
      <point x="252" y="451"/>
      <point x="244" y="444" type="curve"/>
      <point x="242" y="442"/>
      <point x="240" y="440"/>
      <point x="238" y="438" type="curve" smooth="yes"/>
      <point x="236" y="436"/>
      <point x="234" y="434"/>
      <point x="232" y="431" type="curve"/>
    </contour>
  </outline>
</glyph>
<glyph name="Eng" format="1">
  <advance width="395"/>
  <unicode hex="014A"/>
  <outline>
    <contour>
      <point x="511" y="735" type="line"/>
      <point x="355" y="0" type="line"/>
      <point x="346" y="-32"/>
      <point x="331" y="-61"/>
      <point x="308" y="-84" type="curve"/>
      <point x="281" y="-109"/>
      <point x="242" y="-125"/>
      <point x="190" y="-121" type="curve"/>
      <point x="211" y="-20" type="line"/>
      <point x="229" y="-23"/>
      <point x="244" y="-18"/>
      <point x="257" y="-3" type="curve"/>
      <point x="258" y="-2"/>
      <point x="258" y="-2"/>
      <point x="258" y="-1" type="curve"/>
      <point x="258" y="-1"/>
      <point x="259" y="-1"/>
      <point x="260" y="0" type="curve"/>
      <point x="259" y="0" type="line"/>
      <point x="235" y="383" type="line"/>
      <point x="233" y="417" type="line"/>
      <point x="227" y="417" type="line"/>
      <point x="139" y="0" type="line"/>
      <point x="40" y="0" type="line"/>
      <point x="196" y="735" type="line"/>
      <point x="292" y="735" type="line"/>
      <point x="315" y="352" type="line"/>
      <point x="317" y="318" type="line"/>
      <point x="323" y="318" type="line"/>
      <point x="412" y="735" type="line"/>
    </contour>
  </outline>
</glyph>
<glyph name="Racute" format="1">
  <advance width="361"/>
  <unicode hex="0154"/>
  <outline>
    <contour>
      <point x="454" y="915" type="line"/>
      <point x="356" y="825" type="line"/>
      <point x="278" y="825" type="line"/>
      <point x="349" y="915" type="line"/>
    </contour>
    <contour>
      <point x="233" y="0" type="line"/>
      <point x="242" y="310" type="line"/>
      <point x="213" y="310" type="line"/>
      <point x="148" y="0" type="line"/>
      <point x="40" y="0" type="line"/>
      <point x="196" y="735" type="line"/>
      <point x="304" y="735" type="line" smooth="yes"/>
      <point x="433" y="735"/>
      <point x="472" y="663"/>
      <point x="443" y="523" type="curve" smooth="yes"/>
      <point x="427" y="450"/>
      <point x="394" y="384"/>
      <point x="347" y="356" type="curve"/>
      <point x="341" y="0" type="line"/>
    </contour>
    <contour>
      <point x="235" y="410" type="line"/>
      <point x="250" y="410"/>
      <point x="270" y="411"/>
      <point x="289" y="426" type="curve" smooth="yes"/>
      <point x="308" y="441"/>
      <point x="327" y="467"/>
      <point x="338" y="519" type="curve" smooth="yes"/>
      <point x="349" y="571"/>
      <point x="342" y="598"/>
      <point x="329" y="613" type="curve" smooth="yes"/>
      <point x="316" y="628"/>
      <point x="296" y="628"/>
      <point x="281" y="628" type="curve"/>
    </contour>
  </outline>
</glyph>
<glyph name="rcommaaccent" format="1">
  <advance width="246"/>
  <unicode hex="0157"/>
  <outline>
    <contour>
      <point x="336" y="443" type="line"/>
      <point x="328" y="446"/>
      <point x="319" y="447"/>
      <point x="309" y="447" type="curve" smooth="yes"/>
      <point x="293" y="447"/>
      <point x="273" y="445"/>
      <point x="254" y="430" type="curve"/>
      <point x="231" y="414"/>
      <point x="225" y="397"/>
      <point x="221" y="380" type="curve" smooth="yes"/>
      <point x="141" y="0" type="line"/>
      <point x="40" y="0" type="line"/>
      <point x="156" y="547" type="line"/>
      <point x="257" y="547" type="line"/>
      <point x="244" y="486" type="line"/>
      <point x="247" y="493"/>
      <point x="257" y="510"/>
      <point x="276" y="526" type="curve" smooth="yes"/>
      <point x="295" y="541"/>
      <point x="322" y="555"/>
      <point x="359" y="555" type="curve"/>
    </contour>
    <contour>
      <point x="108" y="-117" type="line"/>
      <point x="72" y="-182" type="line"/>
      <point x="21" y="-182" type="line"/>
      <point x="55" y="-117" type="line"/>
      <point x="24" y="-117" type="line"/>
      <point x="38" y="-48" type="line"/>
      <point x="122" y="-48" type="line"/>
    </contour>
  </outline>
</glyph>
<glyph name="rcaron" format="1">
  <advance width="246"/>
  <unicode hex="0159"/>
  <outline>
    <contour>
      <point x="206" y="637" type="line"/>
      <point x="156" y="727" type="line"/>
      <point x="248" y="727" type="line"/>
      <point x="271" y="692" type="line"/>
      <point x="309" y="727" type="line"/>
      <point x="401" y="727" type="line"/>
      <point x="313" y="637" type="line"/>
    </contour>
    <contour>
      <point x="336" y="443" type="line"/>
      <point x="328" y="446"/>
      <point x="319" y="447"/>
      <point x="309" y="447" type="curve" smooth="yes"/>
      <point x="293" y="447"/>
      <point x="273" y="445"/>
      <point x="254" y="430" type="curve"/>
      <point x="231" y="414"/>
      <point x="225" y="397"/>
      <point x="221" y="380" type="curve" smooth="yes"/>
      <point x="141" y="0" type="line"/>
      <point x="40" y="0" type="line"/>
      <point x="156" y="547" type="line"/>
      <point x="257" y="547" type="line"/>
      <point x="244" y="486" type="line"/>
      <point x="247" y="493"/>
      <point x="257" y="510"/>
      <point x="276" y="526" type="curve" smooth="yes"/>
      <point x="295" y="541"/>
      <point x="322" y="555"/>
      <point x="359" y="555" type="curve"/>
    </contour>
  </outline>
</glyph>
<glyph name="Tcaron" format="1">
  <advance width="316"/>
  <unicode hex="0164"/>
  <outline>
    <contour>
      <point x="281" y="825" type="line"/>
      <point x="231" y="915" type="line"/>
      <point x="323" y="915" type="line"/>
      <point x="346" y="880" type="line"/>
      <point x="384" y="915" type="line"/>
      <point x="476" y="915" type="line"/>
      <point x="388" y="825" type="line"/>
    </contour>
    <contour>
      <point x="134" y="624" type="line"/>
      <point x="158" y="735" type="line"/>
      <point x="470" y="735" type="line"/>
      <point x="446" y="624" type="line"/>
      <point x="344" y="624" type="line"/>
      <point x="212" y="0" type="line"/>
      <point x="104" y="0" type="line"/>
      <point x="236" y="624" type="line"/>
    </contour>
  </outline>
</glyph>
<glyph name="Tbar" format="1">
  <advance width="316"/>
  <unicode hex="0166"/>
  <outline>
    <contour>
      <point x="344" y="624" type="line"/>
      <point x="328" y="550" type="line"/>
      <point x="375" y="550" type="line"/>
      <point x="359" y="471" type="line"/>
      <point x="312" y="471" type="line"/>
      <point x="212" y="0" type="line"/>
      <point x="104" y="0" type="line"/>
      <point x="204" y="471" type="line"/>
      <point x="165" y="471" type="line"/>
      <point x="181" y="550" type="line"/>
      <point x="220" y="550" type="line"/>
      <point x="236" y="624" type="line"/>
      <point x="134" y="624" type="line"/>
      <point x="158" y="735" type="line"/>
      <point x="470" y="735" type="line"/>
      <point x="446" y="624" type="line"/>
    </contour>
  </outline>
</glyph>
<glyph name="Ubreve" format="1">
  <advance width="366"/>
  <unicode hex="016C"/>
  <outline>
    <contour>
      <point x="479" y="871" type="line"/>
      <point x="458" y="854"/>
      <point x="435" y="840"/>
      <point x="406" y="831" type="curve"/>
      <point x="393" y="826"/>
      <point x="377" y="824"/>
      <point x="359" y="824" type="curve" smooth="yes"/>
      <point x="324" y="824"/>
      <point x="299" y="835"/>
      <point x="283" y="847" type="curve" smooth="yes"/>
      <point x="273" y="854"/>
      <point x="265" y="862"/>
      <point x="259" y="871" type="curve"/>
      <point x="322" y="917" type="line"/>
      <point x="335" y="898"/>
      <point x="355" y="894"/>
      <point x="374" y="894" type="curve" smooth="yes"/>
      <point x="393" y="894"/>
      <point x="406" y="898"/>
      <point x="419" y="905" type="curve" smooth="yes"/>
      <point x="425" y="908"/>
      <point x="431" y="912"/>
      <point x="436" y="917" type="curve"/>
    </contour>
    <contour>
      <point x="483" y="735" type="line"/>
      <point x="359" y="151" type="line"/>
      <point x="351" y="121"/>
      <point x="339" y="94"/>
      <point x="324" y="71" type="curve"/>
      <point x="309" y="51"/>
      <point x="292" y="32"/>
      <point x="269" y="17" type="curve"/>
      <point x="245" y="0"/>
      <point x="216" y="-8"/>
      <point x="181" y="-8" type="curve" smooth="yes"/>
      <point x="146" y="-8"/>
      <point x="120" y="0"/>
      <point x="102" y="17" type="curve" smooth="yes"/>
      <point x="85" y="32"/>
      <point x="76" y="51"/>
      <point x="72" y="71" type="curve"/>
      <point x="65" y="94"/>
      <point x="65" y="120"/>
      <point x="71" y="151" type="curve" smooth="yes"/>
      <point x="195" y="735" type="line"/>
      <point x="303" y="735" type="line"/>
      <point x="179" y="151" type="line"/>
      <point x="174" y="132"/>
      <point x="176" y="116"/>
      <point x="184" y="105" type="curve"/>
      <point x="188" y="100"/>
      <point x="194" y="97"/>
      <point x="203" y="97" type="curve" smooth="yes"/>
      <point x="222" y="97"/>
      <point x="234" y="109"/>
      <point x="241" y="124" type="curve" smooth="yes"/>
      <point x="244" y="130"/>
      <point x="248" y="139"/>
      <point x="251" y="151" type="curve"/>
      <point x="375" y="735" type="line"/>
    </contour>
  </outline>
</glyph>
<glyph name="ubreve" format="1">
  <advance width="337"/>
  <unicode hex="016D"/>
  <outline>
    <contour>
      <point x="425" y="683" type="line"/>
      <point x="404" y="666"/>
      <point x="381" y="652"/>
      <point x="352" y="643" type="curve"/>
      <point x="339" y="638"/>
      <point x="323" y="636"/>
      <point x="305" y="636" type="curve" smooth="yes"/>
      <point x="270" y="636"/>
      <point x="245" y="647"/>
      <point x="229" y="659" type="curve" smooth="yes"/>
      <point x="219" y="666"/>
      <point x="211" y="674"/>
      <point x="205" y="683" type="curve"/>
      <point x="268" y="729" type="line"/>
      <point x="281" y="710"/>
      <point x="301" y="706"/>
      <point x="320" y="706" type="curve" smooth="yes"/>
      <point x="339" y="706"/>
      <point x="352" y="710"/>
      <point x="365" y="717" type="curve" smooth="yes"/>
      <point x="371" y="720"/>
      <point x="377" y="724"/>
      <point x="382" y="729" type="curve"/>
    </contour>
    <contour>
      <point x="312" y="547" type="line"/>
      <point x="413" y="547" type="line"/>
      <point x="297" y="0" type="line"/>
      <point x="196" y="0" type="line"/>
      <point x="205" y="46" type="line"/>
      <point x="203" y="45"/>
      <point x="199" y="42"/>
      <point x="192" y="36" type="curve" smooth="yes"/>
      <point x="177" y="24"/>
      <point x="161" y="11"/>
      <point x="141" y="0" type="curve"/>
      <point x="129" y="-5"/>
      <point x="119" y="-8"/>
      <point x="112" y="-8" type="curve" smooth="yes"/>
      <point x="85" y="-8"/>
      <point x="69" y="8"/>
      <point x="62" y="29" type="curve"/>
      <point x="54" y="49"/>
      <point x="54" y="76"/>
      <point x="59" y="99" type="curve" smooth="yes"/>
      <point x="154" y="547" type="line"/>
      <point x="255" y="547" type="line"/>
      <point x="163" y="114" type="line" smooth="yes"/>
      <point x="158" y="93"/>
      <point x="170" y="90"/>
      <point x="182" y="90" type="curve" smooth="yes"/>
      <point x="193" y="90"/>
      <point x="200" y="96"/>
      <point x="208" y="103" type="curve"/>
      <point x="212" y="106"/>
      <point x="216" y="111"/>
      <point x="220" y="116" type="curve"/>
    </contour>
  </outline>
</glyph>
<glyph name="Uhungarumlaut" format="1">
  <advance width="366"/>
  <unicode hex="0170"/>
  <outline>
    <contour>
      <point x="383" y="915" type="line"/>
      <point x="285" y="825" type="line"/>
      <point x="207" y="825" type="line"/>
      <point x="278" y="915" type="line"/>
    </contour>
    <contour>
      <point x="531" y="915" type="line"/>
      <point x="433" y="825" type="line"/>
      <point x="355" y="825" type="line"/>
      <point x="426" y="915" type="line"/>
    </contour>
    <contour>
      <point x="483" y="735" type="line"/>
      <point x="359" y="151" type="line"/>
      <point x="351" y="121"/>
      <point x="339" y="94"/>
      <point x="324" y="71" type="curve"/>
      <point x="309" y="51"/>
      <point x="292" y="32"/>
      <point x="269" y="17" type="curve"/>
      <point x="245" y="0"/>
      <point x="216" y="-8"/>
      <point x="181" y="-8" type="curve" smooth="yes"/>
      <point x="146" y="-8"/>
      <point x="120" y="0"/>
      <point x="102" y="17" type="curve" smooth="yes"/>
      <point x="85" y="32"/>
      <point x="76" y="51"/>
      <point x="72" y="71" type="curve"/>
      <point x="65" y="94"/>
      <point x="65" y="120"/>
      <point x="71" y="151" type="curve" smooth="yes"/>
      <point x="195" y="735" type="line"/>
      <point x="303" y="735" type="line"/>
      <point x="179" y="151" type="line"/>
      <point x="174" y="132"/>
      <point x="176" y="116"/>
      <point x="184" y="105" type="curve"/>
      <point x="188" y="100"/>
      <point x="194" y="97"/>
      <point x="203" y="97" type="curve" smooth="yes"/>
      <point x="222" y="97"/>
      <point x="234" y="109"/>
      <point x="241" y="124" type="curve" smooth="yes"/>
      <point x="244" y="130"/>
      <point x="248" y="139"/>
      <point x="251" y="151" type="curve"/>
      <point x="375" y="735" type="line"/>
    </contour>
  </outline>
</glyph>
<glyph name="Uogonek" format="1">
  <advance width="366"/>
  <unicode hex="0172"/>
  <outline>
    <contour>
      <point x="282" y="0" type="line"/>
      <point x="261" y="-15"/>
      <point x="245" y="-31"/>
      <point x="233" y="-50" type="curve" smooth="yes"/>
      <point x="226" y="-61"/>
      <point x="221" y="-72"/>
      <point x="219" y="-83" type="curve" smooth="yes"/>
      <point x="216" y="-98"/>
      <point x="221" y="-106"/>
      <point x="229" y="-112" type="curve" smooth="yes"/>
      <point x="237" y="-118"/>
      <point x="249" y="-121"/>
      <point x="261" y="-121" type="curve" smooth="yes"/>
      <point x="278" y="-121"/>
      <point x="292" y="-117"/>
      <point x="305" y="-112" type="curve"/>
      <point x="282" y="-179" type="line"/>
      <point x="259" y="-186"/>
      <point x="247" y="-188"/>
      <point x="230" y="-188" type="curve" smooth="yes"/>
      <point x="165" y="-188"/>
      <point x="135" y="-148"/>
      <point x="146" y="-103" type="curve" smooth="yes"/>
      <point x="153" y="-75"/>
      <point x="173" y="-50"/>
      <point x="194" y="-31" type="curve"/>
      <point x="205" y="-20"/>
      <point x="217" y="-10"/>
      <point x="232" y="-1" type="curve"/>
      <point x="217" y="-5"/>
      <point x="200" y="-8"/>
      <point x="181" y="-8" type="curve" smooth="yes"/>
      <point x="146" y="-8"/>
      <point x="120" y="0"/>
      <point x="102" y="17" type="curve" smooth="yes"/>
      <point x="85" y="32"/>
      <point x="76" y="51"/>
      <point x="72" y="71" type="curve"/>
      <point x="65" y="94"/>
      <point x="65" y="120"/>
      <point x="71" y="151" type="curve" smooth="yes"/>
      <point x="195" y="735" type="line"/>
      <point x="303" y="735" type="line"/>
      <point x="179" y="151" type="line"/>
      <point x="174" y="132"/>
      <point x="176" y="116"/>
      <point x="184" y="105" type="curve"/>
      <point x="188" y="100"/>
      <point x="194" y="97"/>
      <point x="203" y="97" type="curve" smooth="yes"/>
      <point x="222" y="97"/>
      <point x="234" y="109"/>
      <point x="241" y="124" type="curve" smooth="yes"/>
      <point x="244" y="130"/>
      <point x="248" y="139"/>
      <point x="251" y="151" type="curve"/>
      <point x="375" y="735" type="line"/>
      <point x="483" y="735" type="line"/>
      <point x="359" y="151" type="line"/>
      <point x="351" y="121"/>
      <point x="339" y="94"/>
      <point x="324" y="71" type="curve"/>
      <point x="309" y="51"/>
      <point x="292" y="32"/>
      <point x="269" y="17" type="curve" smooth="yes"/>
      <point x="259" y="10"/>
      <point x="248" y="4"/>
      <point x="235" y="0" type="curve"/>
    </contour>
  </outline>
</glyph>
<glyph name="Wcircumflex" format="1">
  <advance width="506"/>
  <unicode hex="0174"/>
  <outline>
    <contour>
      <point x="500" y="915" type="line"/>
      <point x="550" y="825" type="line"/>
      <point x="458" y="825" type="line"/>
      <point x="434" y="860" type="line"/>
      <point x="397" y="825" type="line"/>
      <point x="305" y="825" type="line"/>
      <point x="393" y="915" type="line"/>
    </contour>
    <contour>
      <point x="195" y="0" type="line"/>
      <point x="111" y="0" type="line"/>
      <point x="168" y="735" type="line"/>
      <point x="268" y="735" type="line"/>
      <point x="230" y="353" type="line"/>
      <point x="226" y="329" type="line"/>
      <point x="234" y="329" type="line"/>
      <point x="243" y="353" type="line"/>
      <point x="370" y="735" type="line"/>
      <point x="448" y="735" type="line"/>
      <point x="413" y="353" type="line"/>
      <point x="410" y="329" type="line"/>
      <point x="418" y="329" type="line"/>
      <point x="426" y="353" type="line"/>
      <point x="550" y="735" type="line"/>
      <point x="650" y="735" type="line"/>
      <point x="395" y="0" type="line"/>
      <point x="311" y="0" type="line"/>
      <point x="334" y="348" type="line"/>
      <point x="338" y="391" type="line"/>
      <point x="334" y="391" type="line"/>
      <point x="318" y="348" type="line"/>
    </contour>
  </outline>
</glyph>
<glyph name="wcircumflex" format="1">
  <advance width="442"/>
  <unicode hex="0175"/>
  <outline>
    <contour>
      <point x="430" y="727" type="line"/>
      <point x="480" y="637" type="line"/>
      <point x="388" y="637" type="line"/>
      <point x="364" y="672" type="line"/>
      <point x="327" y="637" type="line"/>
      <point x="235" y="637" type="line"/>
      <point x="323" y="727" type="line"/>
    </contour>
    <contour>
      <point x="267" y="0" type="line"/>
      <point x="283" y="261" type="line"/>
      <point x="285" y="292" type="line"/>
      <point x="281" y="292" type="line"/>
      <point x="269" y="261" type="line"/>
      <point x="175" y="0" type="line"/>
      <point x="91" y="0" type="line"/>
      <point x="126" y="547" type="line"/>
      <point x="218" y="547" type="line"/>
      <point x="189" y="261" type="line"/>
      <point x="186" y="230" type="line"/>
      <point x="192" y="230" type="line"/>
      <point x="204" y="261" type="line"/>
      <point x="307" y="547" type="line"/>
      <point x="367" y="547" type="line"/>
      <point x="348" y="261" type="line"/>
      <point x="346" y="230" type="line"/>
      <point x="352" y="230" type="line"/>
      <point x="363" y="261" type="line"/>
      <point x="456" y="547" type="line"/>
      <point x="548" y="547" type="line"/>
      <point x="351" y="0" type="line"/>
    </contour>
  </outline>
</glyph>
<glyph name="Ycircumflex" format="1">
  <advance width="342"/>
  <unicode hex="0176"/>
  <outline>
    <contour>
      <point x="420" y="915" type="line"/>
      <point x="470" y="825" type="line"/>
      <point x="378" y="825" type="line"/>
      <point x="354" y="860" type="line"/>
      <point x="317" y="825" type="line"/>
      <point x="225" y="825" type="line"/>
      <point x="313" y="915" type="line"/>
    </contour>
    <contour>
      <point x="273" y="500" type="line"/>
      <point x="274" y="493" type="line"/>
      <point x="276" y="493" type="line"/>
      <point x="281" y="500" type="line"/>
      <point x="385" y="735" type="line"/>
      <point x="491" y="735" type="line"/>
      <point x="291" y="313" type="line"/>
      <point x="225" y="0" type="line"/>
      <point x="117" y="0" type="line"/>
      <point x="183" y="313" type="line"/>
      <point x="163" y="735" type="line"/>
      <point x="269" y="735" type="line"/>
    </contour>
  </outline>
</glyph>
<glyph name="Ydieresis" format="1">
  <advance width="344"/>
  <unicode hex="0178"/>
  <outline>
    <contour>
      <point x="245" y="898" type="line"/>
      <point x="338" y="898" type="line"/>
      <point x="318" y="800" type="line"/>
      <point x="225" y="800" type="line"/>
    </contour>
    <contour>
      <point x="386" y="898" type="line"/>
      <point x="479" y="898" type="line"/>
      <point x="459" y="800" type="line"/>
      <point x="366" y="800" type="line"/>
    </contour>
    <contour>
      <point x="274" y="500" type="line"/>
      <point x="275" y="493" type="line"/>
      <point x="277" y="493" type="line"/>
      <point x="282" y="500" type="line"/>
      <point x="386" y="735" type="line"/>
      <point x="492" y="735" type="line"/>
      <point x="292" y="313" type="line"/>
      <point x="226" y="0" type="line"/>
      <point x="118" y="0" type="line"/>
      <point x="184" y="313" type="line"/>
      <point x="164" y="735" type="line"/>
      <point x="270" y="735" type="line"/>
    </contour>
  </outline>
</glyph>
<glyph name="longs" format="1">
  <advance width="232"/>
  <unicode hex="017F"/>
  <outline>
    <contour>
      <point x="18" y="0" type="line"/>
      <point x="139" y="573" type="line" smooth="yes"/>
      <point x="152" y="633"/>
      <point x="173" y="672"/>
      <point x="201" y="696" type="curve" smooth="yes"/>
      <point x="228" y="719"/>
      <point x="262" y="727"/>
      <point x="299" y="727" type="curve" smooth="yes"/>
      <point x="318" y="727"/>
      <point x="341" y="724"/>
      <point x="368" y="719" type="curve"/>
      <point x="340" y="641" type="line"/>
      <point x="327" y="644"/>
      <point x="313" y="645"/>
      <point x="298" y="645" type="curve" smooth="yes"/>
      <point x="250" y="645"/>
      <point x="228" y="628"/>
      <point x="215" y="565" type="curve" smooth="yes"/>
      <point x="95" y="0" type="line"/>
    </contour>
  </outline>
</glyph>
<glyph name="uni021A" format="1">
  <advance width="316"/>
  <unicode hex="021A"/>
  <outline>
    <contour>
      <point x="134" y="624" type="line"/>
      <point x="158" y="735" type="line"/>
      <point x="470" y="735" type="line"/>
      <point x="446" y="624" type="line"/>
      <point x="344" y="624" type="line"/>
      <point x="212" y="0" type="line"/>
      <point x="104" y="0" type="line"/>
      <point x="236" y="624" type="line"/>
    </contour>
    <contour>
      <point x="188" y="-123" type="line"/>
      <point x="153" y="-188" type="line"/>
      <point x="102" y="-188" type="line"/>
      <point x="135" y="-123" type="line"/>
      <point x="104" y="-123" type="line"/>
      <point x="119" y="-54" type="line"/>
      <point x="203" y="-54" type="line"/>
    </contour>
  </outline>
</glyph>
<glyph name="circumflex" format="1">
  <advance width="499"/>
  <unicode hex="02C6"/>
  <outline>
    <contour>
      <point x="457" y="727" type="line"/>
      <point x="507" y="637" type="line"/>
      <point x="415" y="637" type="line"/>
      <point x="391" y="672" type="line"/>
      <point x="354" y="637" type="line"/>
      <point x="262" y="637" type="line"/>
      <point x="350" y="727" type="line"/>
    </contour>
    <contour>
      <point x="384.5" y="547" type="move" name="_top"/>
    </contour>
  </outline>
</glyph>
<glyph name="caron" format="1">
  <advance width="499"/>
  <unicode hex="02C7"/>
  <outline>
    <contour>
      <point x="331" y="637" type="line"/>
      <point x="281" y="727" type="line"/>
      <point x="373" y="727" type="line"/>
      <point x="396" y="692" type="line"/>
      <point x="434" y="727" type="line"/>
      <point x="526" y="727" type="line"/>
      <point x="438" y="637" type="line"/>
    </contour>
    <contour>
      <point x="403.5" y="547" type="move" name="_top"/>
    </contour>
  </outline>
</glyph>
<glyph name="tilde" format="1">
  <advance width="500"/>
  <unicode hex="02DC"/>
  <outline>
    <contour>
      <point x="304" y="711" type="line"/>
      <point x="315" y="718"/>
      <point x="327" y="723"/>
      <point x="340" y="727" type="curve" smooth="yes"/>
      <point x="346" y="729"/>
      <point x="353" y="730"/>
      <point x="361" y="730" type="curve" smooth="yes"/>
      <point x="375" y="730"/>
      <point x="389" y="727"/>
      <point x="403" y="722" type="curve"/>
      <point x="417" y="715"/>
      <point x="431" y="712"/>
      <point x="445" y="711" type="curve"/>
      <point x="460" y="711"/>
      <point x="471" y="715"/>
      <point x="483" y="719" type="curve" smooth="yes"/>
      <point x="486" y="720"/>
      <point x="489" y="722"/>
      <point x="492" y="723" type="curve" smooth="yes"/>
      <point x="495" y="724"/>
      <point x="498" y="726"/>
      <point x="501" y="727" type="curve"/>
      <point x="485" y="653" type="line"/>
      <point x="476" y="646"/>
      <point x="464" y="640"/>
      <point x="449" y="637" type="curve"/>
      <point x="442" y="635"/>
      <point x="435" y="634"/>
      <point x="428" y="634" type="curve" smooth="yes"/>
      <point x="413" y="634"/>
      <point x="399" y="637"/>
      <point x="387" y="643" type="curve"/>
      <point x="375" y="648"/>
      <point x="361" y="652"/>
      <point x="344" y="653" type="curve"/>
      <point x="329" y="653"/>
      <point x="317" y="649"/>
      <point x="306" y="645" type="curve" smooth="yes"/>
      <point x="303" y="644"/>
      <point x="300" y="642"/>
      <point x="297" y="641" type="curve" smooth="yes"/>
      <point x="294" y="640"/>
      <point x="291" y="638"/>
      <point x="288" y="637" type="curve"/>
    </contour>
    <contour>
      <point x="394.5" y="547" type="move" name="_top"/>
    </contour>
  </outline>
</glyph>
<glyph name="emdash" format="1">
  <advance width="475"/>
  <unicode hex="2014"/>
  <outline>
    <contour>
      <point x="123" y="412" type="line"/>
      <point x="526" y="412" type="line"/>
      <point x="506" y="317" type="line"/>
      <point x="103" y="317" type="line"/>
    </contour>
  </outline>
</glyph>
<glyph name="quoteleft" format="1">
  <advance width="151"/>
  <unicode hex="2018"/>
  <outline>
    <contour>
      <point x="152" y="605" type="line"/>
      <point x="235" y="735" type="line"/>
      <point x="285" y="735" type="line"/>
      <point x="222" y="605" type="line"/>
      <point x="257" y="605" type="line"/>
      <point x="234" y="494" type="line"/>
      <point x="129" y="494" type="line"/>
    </contour>
  </outline>
</glyph>
<glyph name="quotedblleft" format="1">
  <advance width="305"/>
  <unicode hex="201C"/>
  <outline>
    <contour>
      <point x="154" y="605" type="line"/>
      <point x="237" y="735" type="line"/>
      <point x="287" y="735" type="line"/>
      <point x="224" y="605" type="line"/>
      <point x="259" y="605" type="line"/>
      <point x="236" y="494" type="line"/>
      <point x="131" y="494" type="line"/>
    </contour>
    <contour>
      <point x="302" y="605" type="line"/>
      <point x="385" y="735" type="line"/>
      <point x="435" y="735" type="line"/>
      <point x="372" y="605" type="line"/>
      <point x="407" y="605" type="line"/>
      <point x="384" y="494" type="line"/>
      <point x="279" y="494" type="line"/>
    </contour>
  </outline>
</glyph>
<glyph name="quotedblbase" format="1">
  <advance width="305"/>
  <unicode hex="201E"/>
  <outline>
    <contour>
      <point x="131" y="0" type="line"/>
      <point x="48" y="-130" type="line"/>
      <point x="-1" y="-130" type="line"/>
      <point x="61" y="0" type="line"/>
      <point x="26" y="0" type="line"/>
      <point x="49" y="111" type="line"/>
      <point x="154" y="111" type="line"/>
    </contour>
    <contour>
      <point x="279" y="0" type="line"/>
      <point x="196" y="-130" type="line"/>
      <point x="146" y="-130" type="line"/>
      <point x="209" y="0" type="line"/>
      <point x="174" y="0" type="line"/>
      <point x="197" y="111" type="line"/>
      <point x="302" y="111" type="line"/>
    </contour>
  </outline>
</glyph>
<glyph name="trademark" format="1">
  <advance width="458"/>
  <unicode hex="2122"/>
  <outline>
    <contour>
      <point x="181" y="684" type="line"/>
      <point x="192" y="735" type="line"/>
      <point x="349" y="735" type="line"/>
      <point x="338" y="684" type="line"/>
      <point x="287" y="684" type="line"/>
      <point x="227" y="401" type="line"/>
      <point x="172" y="401" type="line"/>
      <point x="232" y="684" type="line"/>
    </contour>
    <contour>
      <point x="389" y="401" type="line"/>
      <point x="396" y="620" type="line"/>
      <point x="350" y="401" type="line"/>
      <point x="300" y="401" type="line"/>
      <point x="371" y="735" type="line"/>
      <point x="438" y="735" type="line"/>
      <point x="438" y="579" type="line"/>
      <point x="441" y="579" type="line"/>
      <point x="507" y="735" type="line"/>
      <point x="574" y="735" type="line"/>
      <point x="503" y="401" type="line"/>
      <point x="452" y="401" type="line"/>
      <point x="498" y="620" type="line"/>
      <point x="414" y="401" type="line"/>
    </contour>
  </outline>
</glyph>
